<svg version="1.1" xmlns="http://www.w3.org/2000/svg" xmlns:xlink="http://www.w3.org/1999/xlink" x="0px" y="0px"
	 viewBox="0 0 1770.2 303" style="enable-background:new 0 0 1770.2 303;" xml:space="preserve">
<style type="text/css">
	.st0{fill:#FFFFFF;}
	.st1{fill:#8B0000;}
</style>
<g>
	<polygon class="st0" points="11.3,99.2 11.3,29.2 28.8,11.7 142.3,11.7 160,29.4 160,62.2 125.8,62.2 125.8,45.7 44.8,45.7 
		44.8,74.7 142.8,74.7 160.3,92.2 160.3,160.7 143,177.9 22.8,177.9 10.2,165.3 10.2,126.7 45.8,126.7 45.8,143.7 125.8,143.7 
		125.8,108.7 22.8,108.7 	"/>
	<path class="st0" d="M316.3,11.2h-132v167l33.5-0.5v-51.3h103.8l11.8-11.8V28.2L316.3,11.2z M292.8,91.7h-74v-46h74V91.7z"/>
	<path class="st0" d="M483.3,11.2h-114l-18,18v132l18.5,16.8H484l16.8-16.8V28.7L483.3,11.2z M465.8,143.7h-81v-98h81V143.7z"/>
	<path class="st0" d="M649.8,120.7h11.5l11.8-11.8V28.2l-16.9-16.9l-132.9-0.1v167h35v-52h46l35,35v17h34v-34L649.8,120.7z
		 M632.8,91.7h-75v-46h75V91.7z"/>
	<polygon class="st0" points="742.3,178.2 777.3,178.2 777.3,45.2 834.3,45.2 834.3,11.2 685.3,11.2 685.3,45.2 742.8,45.2 	"/>
	<polygon class="st0" points="852.3,178.2 886.3,178.2 886.3,109.2 984.3,109.2 984.3,75.2 886.3,75.2 886.3,45.2 990.3,45.2 
		990.3,11.2 852.3,11.2 	"/>
	<rect x="1007.3" y="11.2" class="st0" width="35" height="167"/>
	<polygon class="st0" points="1054.3,11.2 1054.3,45.2 1111.3,45.2 1111.3,178.2 1146.3,178.2 1146.3,45.2 1203.3,45.2 1203.3,11.2 
			"/>
	<path class="st0" d="M491.3,263.5c0-9.3,2.5-16.7,7.5-21.9c5-5.3,11.5-7.9,19.4-7.9c4.9-0.1,9.8,1.2,14.1,3.7
		c4.1,2.4,7.5,6.1,9.5,10.4c2.2,4.7,3.4,9.9,3.3,15.1c0.1,5.3-1.1,10.6-3.5,15.3c-2.1,4.3-5.6,7.9-9.8,10.2
		c-4.2,2.3-8.9,3.5-13.7,3.5c-5,0.1-9.9-1.2-14.2-3.8c-4.1-2.5-7.4-6.1-9.5-10.5C492.4,273.2,491.3,268.4,491.3,263.5z M499,263.7
		c0,6.8,1.8,12.1,5.5,16c7.3,7.6,19.4,7.8,27,0.5c0.2-0.2,0.4-0.4,0.6-0.6c3.6-3.9,5.4-9.5,5.4-16.8c0.1-4.1-0.7-8.2-2.3-12
		c-1.4-3.3-3.8-6-6.8-7.9s-6.5-2.9-10-2.8c-5.1-0.1-10,1.9-13.6,5.4C500.9,249.1,499,255.2,499,263.7L499,263.7z"/>
	<path class="st0" d="M518.2,294.9c-5.6,0.1-11-1.4-15.8-4.3c-4.6-2.8-8.3-6.9-10.6-11.7c-2.3-4.8-3.5-10-3.5-15.4
		c0-10.1,2.8-18.2,8.3-24s12.8-8.9,21.6-8.9c5.5-0.1,10.9,1.4,15.6,4.2c4.6,2.7,8.4,6.8,10.7,11.6c2.4,5.1,3.7,10.8,3.6,16.4
		c0.1,5.8-1.2,11.5-3.8,16.7c-2.4,4.9-6.2,8.9-11,11.5C528.7,293.6,523.5,294.9,518.2,294.9z M518.2,236.7c-7.1,0-12.8,2.3-17.3,7
		s-6.7,11.4-6.7,19.9c0,4.4,1,8.8,2.9,12.8c1.8,3.8,4.7,7,8.3,9.2c3.8,2.3,8.2,3.5,12.6,3.4c4.3,0,8.5-1.1,12.2-3.1s6.7-5.2,8.6-9
		c2.1-4.3,3.2-9.2,3.1-14c0.1-4.8-1-9.5-3-13.8c-1.8-3.8-4.7-7-8.4-9.1C526.9,237.7,522.6,236.6,518.2,236.7L518.2,236.7z
		 M518.1,288.5c-6,0.1-11.8-2.4-15.9-6.8c-4.2-4.5-6.3-10.5-6.3-18.1c0-9.3,2.2-16.1,6.6-20.3c4.2-4.1,9.8-6.3,15.7-6.3
		c4.1,0,8.2,1.1,11.6,3.3c3.5,2.2,6.3,5.4,7.9,9.3c1.8,4.2,2.7,8.7,2.6,13.2c0,8-2.1,14.3-6.2,18.8
		C530.1,286.2,524.3,288.7,518.1,288.5L518.1,288.5z M518.3,243.1c-4.3-0.1-8.5,1.6-11.5,4.6c-3.2,3-4.8,8.4-4.8,16
		c0,6.1,1.5,10.6,4.7,14c6.2,6.4,16.4,6.6,22.8,0.4c0.1-0.1,0.3-0.3,0.4-0.4c3.1-3.3,4.6-8.3,4.6-14.8c0.1-3.7-0.6-7.4-2.1-10.8
		c-1.2-2.7-3.2-5.1-5.7-6.7C524.2,243.9,521.3,243,518.3,243.1L518.3,243.1z"/>
	<path class="st0" d="M632.2,291v-56.3h21.1c3.5-0.1,7.1,0.4,10.3,1.7c2.5,1.1,4.7,2.9,6.1,5.3c1.4,2.2,2.2,4.8,2.2,7.4
		c0,2.4-0.7,4.8-2,6.8c-1.4,2.2-3.5,4-5.9,5.2c3.1,0.8,5.9,2.6,7.8,5.1c1.8,2.5,2.8,5.5,2.8,8.5c0,2.5-0.6,5.1-1.7,7.3
		c-0.9,2-2.4,3.8-4.1,5.2c-1.8,1.3-3.9,2.3-6.2,2.8c-3,0.7-6,1-9.1,0.9h-21.3V291z M639.6,258.3h12.2c2.4,0.1,4.8-0.1,7.1-0.7
		c1.7-0.4,3.2-1.4,4.3-2.8c1-1.4,1.5-3.2,1.4-4.9c0-1.7-0.4-3.4-1.3-4.9c-0.9-1.4-2.2-2.4-3.8-2.9c-2.8-0.6-5.7-0.9-8.6-0.8h-11.2
		v17H639.6z M639.6,284.3h14c1.7,0,3.4,0,5.1-0.3c1.5-0.2,3-0.8,4.3-1.5c1.2-0.8,2.2-1.9,2.8-3.1c0.8-1.5,1.1-3.1,1.1-4.7
		c0-1.9-0.5-3.9-1.6-5.5s-2.7-2.7-4.5-3.3c-2.7-0.7-5.5-1-8.2-0.9h-13L639.6,284.3z"/>
	<path class="st0" d="M653.6,294h-24.5v-62.3h24.1c3.9-0.1,7.9,0.5,11.5,2c3.1,1.3,5.7,3.6,7.5,6.4c1.7,2.7,2.6,5.8,2.7,9
		c0,3-0.8,5.9-2.4,8.4c-0.7,1.1-1.5,2.1-2.4,3c1.6,1,3,2.3,4.2,3.8c2.2,3,3.4,6.6,3.4,10.3c0,3-0.7,6-2,8.7c-1.1,2.5-2.9,4.6-5,6.3
		c-2.2,1.6-4.6,2.7-7.2,3.3C660.2,293.7,656.9,294,653.6,294z M635.2,288h18.5c2.8,0.1,5.6-0.2,8.3-0.8c1.8-0.4,3.6-1.2,5.1-2.3
		c1.4-1.1,2.5-2.5,3.2-4.2c0.9-1.9,1.4-3.9,1.4-6c0.1-2.4-0.7-4.8-2.1-6.7c-1.3-1.7-3-2.9-5-3.6c1.3,0.8,2.4,1.9,3.3,3.1
		c1.4,2.1,2.2,4.6,2.2,7.2c0,2.1-0.5,4.3-1.5,6.2c-0.9,1.7-2.2,3.2-3.9,4.3c-1.6,1-3.5,1.6-5.4,1.9s-3.7,0.4-5.6,0.3h-17V262h16
		c1.6,0,3.2,0.1,4.8,0.2l-1.6-0.5l1.4-0.7c-1.8,0.2-3.6,0.3-5.5,0.3h-15.2v-23h14.3c4.4,0,7.5,0.3,9.5,0.9c2.3,0.7,4.2,2.2,5.5,4.2
		c1.2,2,1.8,4.2,1.8,6.5c0.1,2.2-0.5,4.3-1.7,6.2c0.6-0.6,1.1-1.2,1.5-1.9c1-1.6,1.5-3.4,1.5-5.2c0-2.1-0.6-4.1-1.8-5.8
		c-1.1-1.8-2.8-3.3-4.8-4.1c-2.9-1.1-6-1.6-9.2-1.5h-18.1L635.2,288L635.2,288z M642.6,281.3h11c1.5,0,3,0,4.5-0.2
		c1.1-0.2,2.3-0.6,3.3-1.1c0.8-0.5,1.4-1.2,1.8-2c0.5-1,0.8-2.2,0.8-3.3c0-1.3-0.3-2.7-1.1-3.8c-0.7-1-1.8-1.8-3-2.1
		c-2.4-0.6-4.8-0.9-7.3-0.8h-10V281.3z M642.6,255.3h9.2c2.1,0.1,4.2-0.1,6.2-0.5c1.1-0.3,2-0.9,2.7-1.7c0.6-0.9,0.9-2,0.9-3.1
		c0-1.2-0.3-2.3-0.9-3.3c-0.5-0.8-1.3-1.4-2.2-1.7s-3-0.7-7.7-0.7h-8.3L642.6,255.3z"/>
	<path class="st0" d="M760.4,263.5c0-9.3,2.5-16.7,7.5-21.9c5-5.3,11.5-7.9,19.4-7.9c4.9-0.1,9.8,1.2,14.1,3.7
		c4.1,2.4,7.5,6.1,9.5,10.4c2.2,4.7,3.4,9.9,3.3,15.1c0.1,5.3-1.1,10.6-3.5,15.3c-2.1,4.3-5.6,7.9-9.8,10.2
		c-4.2,2.3-8.9,3.5-13.7,3.5c-5,0.1-9.9-1.2-14.2-3.8c-4.1-2.5-7.4-6.1-9.5-10.5C761.5,273.2,760.4,268.4,760.4,263.5z M768.1,263.7
		c0,6.8,1.8,12.1,5.5,16c7.3,7.6,19.4,7.8,27,0.5c0.2-0.2,0.4-0.4,0.6-0.6c3.6-3.9,5.4-9.5,5.4-16.8c0.1-4.1-0.7-8.2-2.3-12
		c-1.4-3.3-3.8-6-6.8-7.9s-6.5-2.9-10-2.8c-5.1-0.1-10,1.9-13.6,5.4C770,249.1,768.1,255.2,768.1,263.7L768.1,263.7z"/>
	<path class="st0" d="M787.3,294.9c-5.6,0.1-11-1.4-15.8-4.3c-4.6-2.8-8.3-6.9-10.6-11.7c-2.3-4.8-3.5-10-3.5-15.4
		c0-10.1,2.8-18.2,8.3-24s12.8-8.9,21.6-8.9c5.5-0.1,10.9,1.4,15.6,4.2c4.6,2.7,8.4,6.8,10.7,11.6c2.4,5.1,3.7,10.8,3.6,16.4
		c0.1,5.8-1.2,11.5-3.8,16.7c-2.4,4.9-6.2,8.9-11,11.5C797.8,293.6,792.6,294.9,787.3,294.9z M787.3,236.7c-7.1,0-12.8,2.3-17.3,7
		s-6.7,11.4-6.7,19.9c0,4.4,1,8.8,2.9,12.8c1.8,3.8,4.7,7,8.3,9.2c3.8,2.3,8.2,3.5,12.6,3.4c4.3,0,8.5-1.1,12.2-3.1s6.7-5.2,8.6-9
		c2.1-4.3,3.2-9.2,3.1-14c0.1-4.8-1-9.5-3-13.8c-1.8-3.8-4.7-7-8.4-9.1C796,237.7,791.7,236.6,787.3,236.7L787.3,236.7z
		 M787.2,288.5c-6,0.1-11.8-2.4-15.9-6.8c-4.2-4.5-6.3-10.5-6.3-18.1c0-9.3,2.2-16.1,6.6-20.3c4.2-4.1,9.8-6.3,15.7-6.3
		c4.1,0,8.2,1.1,11.6,3.3c3.5,2.2,6.3,5.4,7.9,9.3c1.8,4.2,2.7,8.7,2.6,13.2c0,8-2.1,14.3-6.2,18.8
		C799.2,286.2,793.3,288.7,787.2,288.5L787.2,288.5z M787.3,243.1c-4.3-0.1-8.5,1.6-11.5,4.6c-3.2,3-4.8,8.4-4.8,16
		c0,6.1,1.5,10.6,4.7,14c6.2,6.4,16.4,6.6,22.8,0.4c0.1-0.1,0.3-0.3,0.4-0.4c3.1-3.3,4.6-8.3,4.6-14.8c0.1-3.7-0.6-7.4-2.1-10.8
		c-1.2-2.7-3.2-5.1-5.7-6.7C793.2,243.9,790.3,243.1,787.3,243.1L787.3,243.1z"/>
	<path class="st0" d="M898.8,291v-56.3h7.5v49.7H934v6.6H898.8z"/>
	<path class="st0" d="M936.9,294h-41.2v-62.3h13.5v49.7H937L936.9,294z M901.8,288H931v-0.6h-27.7v-49.7h-1.5V288z"/>
	<path class="st0" d="M1020.2,263.5c0-9.3,2.5-16.7,7.5-21.9c5-5.3,11.5-7.9,19.4-7.9c4.9-0.1,9.8,1.2,14.1,3.7
		c4.1,2.4,7.5,6.1,9.5,10.4c2.2,4.7,3.4,9.9,3.3,15.1c0.1,5.3-1.1,10.6-3.5,15.3c-2.1,4.3-5.6,7.9-9.8,10.2
		c-4.2,2.3-8.9,3.5-13.7,3.5c-5,0.1-9.9-1.2-14.2-3.8c-4.1-2.5-7.4-6.1-9.5-10.5C1021.3,273.2,1020.2,268.4,1020.2,263.5z
		 M1027.9,263.7c0,6.8,1.8,12.1,5.5,16c7.3,7.6,19.4,7.8,27,0.5c0.2-0.2,0.4-0.4,0.6-0.6c3.6-3.9,5.4-9.5,5.4-16.8
		c0.1-4.1-0.7-8.2-2.3-12c-1.4-3.3-3.8-6-6.8-7.9s-6.5-2.9-10-2.8c-5.1-0.1-10,1.9-13.6,5.4C1029.8,249.1,1027.9,255.2,1027.9,263.7
		L1027.9,263.7z"/>
	<path class="st0" d="M1047.1,294.9c-5.6,0.1-11-1.4-15.8-4.3c-4.6-2.8-8.3-6.9-10.6-11.7c-2.3-4.8-3.5-10-3.5-15.4
		c0-10.1,2.8-18.2,8.3-24c5.5-5.8,12.8-8.9,21.6-8.9c5.5-0.1,10.9,1.4,15.6,4.2c4.6,2.7,8.4,6.8,10.7,11.6
		c2.4,5.1,3.7,10.8,3.6,16.4c0.1,5.8-1.2,11.5-3.8,16.7c-2.4,4.9-6.2,8.9-11,11.5C1057.6,293.6,1052.4,294.9,1047.1,294.9z
		 M1047.1,236.7c-7.2,0-12.8,2.3-17.3,7s-6.7,11.4-6.7,19.9c0,4.4,1,8.8,2.9,12.8c1.8,3.8,4.7,7,8.4,9.2c3.8,2.3,8.2,3.5,12.6,3.4
		c4.3,0,8.5-1,12.2-3.1c3.7-2,6.7-5.2,8.6-9c2.1-4.3,3.2-9.2,3.1-14c0.1-4.8-1-9.5-3-13.8c-1.8-3.8-4.7-7-8.4-9.1
		C1055.8,237.7,1051.5,236.6,1047.1,236.7L1047.1,236.7z M1047,288.5c-6,0.1-11.8-2.4-15.9-6.8c-4.2-4.5-6.3-10.5-6.3-18.1
		c0-9.3,2.2-16.1,6.6-20.3c4.2-4.1,9.8-6.3,15.7-6.3c4.1,0,8.2,1.1,11.6,3.3c3.5,2.2,6.3,5.4,7.9,9.3c1.8,4.2,2.7,8.7,2.6,13.2
		c0,8-2.1,14.3-6.2,18.8C1059,286.2,1053.2,288.7,1047,288.5L1047,288.5z M1047.2,243.1c-4.3-0.1-8.5,1.6-11.5,4.6
		c-3.2,3-4.8,8.4-4.8,16c0,6.1,1.5,10.6,4.7,14c6.2,6.4,16.4,6.6,22.8,0.4c0.1-0.1,0.3-0.3,0.4-0.4c3.1-3.3,4.6-8.3,4.6-14.8
		c0.1-3.7-0.6-7.4-2.1-10.8c-1.2-2.7-3.2-5.1-5.7-6.7C1053.1,243.9,1050.2,243.1,1047.2,243.1L1047.2,243.1z"/>
	<path class="st0" d="M1158.8,291v-56.3h7.6l29.6,44.2v-44.2h7.1V291h-7.6l-29.6-44.2V291H1158.8z"/>
	<path class="st0" d="M1206.2,294h-12.3l-25-37.4V294h-13.1v-62.3h12.3l25,37.3v-37.3h13.1V294z M1199,288h1.1v-50.3h-1.1V288z
		 M1197.1,288h1.4l-33.7-50.3h-1.3L1197.1,288z M1161.8,288h1.1v-50.3h-1.1V288z"/>
</g>
<g>
	<path class="st1" d="M1312.3,132.2h-21v34h21v64c0,0,3,12,28,12s30-10,30-10v-161c0,0-9-14-29-14s-29,13-29,13V132.2z"/>
	<path class="st1" d="M1742.3,132.2h21v34h-21v64c0,0-3,12-28,12s-30-10-30-10v-161c0,0,9-14,29-14s29,13,29,13V132.2z"/>
	<rect x="1473.3" y="132.2" class="st1" width="103" height="39"/>
	<path class="st1" d="M1382.3,36.2v227c0,0,1,19,40,19s35-18,35-18v-228c0,0-2-18-37-18S1382.3,36.2,1382.3,36.2z"/>
	<path class="st1" d="M1595.3,32.2v232c0,0,4,18,40,18s35-20,35-20v-226c0,0-4-18-37-18S1595.3,32.2,1595.3,32.2z"/>
</g>
</svg>
