<svg xmlns="http://www.w3.org/2000/svg" viewBox="0 0 161.9 54.94"><defs><style>.cls-1{fill:#353535;}</style></defs><title>grunge-brushe-bg</title><g id="Слой_2" data-name="Слой 2"><g id="grunge"><path class="cls-1" d="M128.59,20.32v-.19l-.15.33A.27.27,0,0,0,128.59,20.32Z"/><path class="cls-1" d="M23.2,38.84v-.49A2.43,2.43,0,0,0,23.2,38.84Z"/><path class="cls-1" d="M144.35,36.77l-.11.36a.29.29,0,0,0,.14-.17C144.37,36.9,144.36,36.84,144.35,36.77Z"/><path class="cls-1" d="M142.81,44.09h0C142.81,44.52,142.84,44.36,142.81,44.09Z"/><path class="cls-1" d="M146.68,43.05c.25,0,.14-.23,0-.5l-.43.1C146.38,42.75,146.53,43,146.68,43.05Z"/><path class="cls-1" d="M145.3,37.43l.06-.34C145.21,37.18,145.23,37.3,145.3,37.43Z"/><path class="cls-1" d="M109.91,4.39c.23,0,.42.27.33.4.48-.36.47.07.56-.66.31-.35.61.16.26.44l.87-.42L111.42,4c.16-.6.81.21,1-.5l-.93,0,.05-.2a.71.71,0,0,1-.77,0c0-.1,0-.26.18-.27-1.12-.08-.34,1.05-1.28,1.22A.3.3,0,0,1,109.91,4.39Z"/><path class="cls-1" d="M107.94,3.4c0,.26-.5.46-.18.7A.43.43,0,0,1,108,4c-.09.56-.88.26-.7.84.52-.13.6,0,.93-.46a1.79,1.79,0,0,1,1,.42c.14-.08.17-.43.36-.49l-.12,0V3.49c-.16.18-.29.09-.46.1l.8-1c-.22-.81-1-.36-1.29-.7.35.73-.31.35.41,1l-.41.75Z"/><path class="cls-1" d="M53.61,4.94a.28.28,0,0,0,0-.09l-.13.29h0Z"/><path class="cls-1" d="M58.25,1.35l-.76.6c.08-.25-.31-.13-.17-.43-.06,0-.34.17-.25.29l.17,0c-.35.74-.06,1-.71,1.59.49.36.64,0,.84-.38a1.21,1.21,0,0,1,.2-.12l.57-1Z"/><path class="cls-1" d="M26.51,11.42v.23C26.54,11.53,26.69,11.39,26.51,11.42Z"/><path class="cls-1" d="M39.47,13.1l-.12.13A.14.14,0,0,0,39.47,13.1Z"/><path class="cls-1" d="M74.84.48l.31-.22A.51.51,0,0,0,74.84.48Z"/><path class="cls-1" d="M101.09,2.77h0l-.05,0Z"/><path class="cls-1" d="M74.78.52h0l0-.05Z"/><path class="cls-1" d="M60.53,2.81,60.24,3A.47.47,0,0,0,60.53,2.81Z"/><path class="cls-1" d="M105.53,5.41h0v.1Z"/><path class="cls-1" d="M89.19,3.17c.08.12.27.26.19.4C89.53,3.4,89.5,3,89.19,3.17Z"/><path class="cls-1" d="M107.16,2.83l-.19.54c-.47-.49-.78-.15-1.25-.2l1.06.31c.49.47.15.56-.24.65.1,0,.18,0,.21.14.05-.2,1.19-.61.24-.74.05-.63.61-.27.87-.42-.18-.15.1-.4.05-.63-.13.07-.28.25-.49.2a.32.32,0,0,1,.47-.36c-.29-.34.4-.49,0-.75a3.12,3.12,0,0,0-2.24,1.31A2,2,0,0,1,107.16,2.83Z"/><path class="cls-1" d="M63.41,1.83a.34.34,0,0,0,0-.07S63.37,1.82,63.41,1.83Z"/><path class="cls-1" d="M88.61.73a.65.65,0,0,0-.26,0A.44.44,0,0,0,88.61.73Z"/><polygon class="cls-1" points="77.72 7.66 77.66 7.72 77.7 7.75 77.72 7.66"/><path class="cls-1" d="M78.81,8.18a.47.47,0,0,0-.15.15C78.75,8.31,78.78,8.25,78.81,8.18Z"/><path class="cls-1" d="M93.46,6.08a.61.61,0,0,0-.19,0l0,.07C93.28,6.2,93.4,6.12,93.46,6.08Z"/><path class="cls-1" d="M105.83,5.49c.15-.18.52-.14.46-.53C106.29,5.38,105.63,5,105.83,5.49Z"/><path class="cls-1" d="M106.44,5.64l-.46.1.28.18C106.29,5.81,106.28,5.65,106.44,5.64Z"/><path class="cls-1" d="M21.32,9.47c.8-.26,1.54-.47,2.77-.94Z"/><polygon class="cls-1" points="83.06 1.25 83.02 1.19 82.65 1.44 82.69 1.5 83.06 1.25"/><path class="cls-1" d="M73.65.88c.54.08.41-.54.72-.72a11.88,11.88,0,0,0-1.44.14C73.51.44,73.66.51,73.65.88Z"/><path class="cls-1" d="M72.45.29c0-.37-.47-.12-.36-.1S72.36.17,72.45.29Z"/><path class="cls-1" d="M70.61,1.81a.5.5,0,0,1,.24.55C71,2.17,71.14,1.52,70.61,1.81Z"/><polygon class="cls-1" points="74.17 7.03 73.73 7.17 73.81 7.29 74.17 7.03"/><path class="cls-1" d="M64.4,1l.25-.28-.35,0C64.41.76,64.27,1.26,64.4,1Z"/><polygon class="cls-1" points="62.54 2.13 62.98 1.97 62.49 2.07 62.54 2.13"/><polygon class="cls-1" points="60.29 1.25 60.2 1.14 59.84 1.41 59.94 1.53 60.29 1.25"/><path class="cls-1" d="M37.67,5.68a.53.53,0,0,1-.7.12c0,.31.29.53.32.9.83.25.7-1.21,1.5-1.11,0,.36-.15.72.34.59l-.11.1c.72-.53.75.71,1.08-.36l.07.52c.29-.45,1-.57,1.37-.71v.1c1-.78.6-.23,1.8-.68l-.47.7c.47.18.46-.49.78-.47,0,.1.12.47-.15.61l1.36-1.15c.3-.45-.13-.37-.22-.59.08-.36.77-.26.85.06-.07.15-.4.34-.15.51l.39-.91c.76.42-.36,1.17-.65,1.51.71,0,.84-.57,1.58-.68a1,1,0,0,1-.54-.39c-.11-.58.62-.43,1.11-.54-.35-.21-.2-.45,0-.71a.19.19,0,0,0,.08-.1l.07-.09h-.06a.59.59,0,0,0-.09-.25c-.39.23-.78-.21-1.05-.18.41.91-.88.36-1.18.7l-.38.15-.15,0c0-.1,0-.24.17-.46-.16.21-.79.24-.68.54l-1.41.23a.48.48,0,0,1-.14-.14.19.19,0,0,0,0,.17L36.22,4.79c.31,0,.62.19.95.24C36.81,5.74,37.7,5.06,37.67,5.68Z"/><path class="cls-1" d="M35.79,4.87l.43-.08A.82.82,0,0,0,35.79,4.87Z"/><path class="cls-1" d="M48.64,3.29c-.3-.23.14-.41.16-.61l-.94.15c0,.2,0,.44,0,.62Z"/><path class="cls-1" d="M47.54,2.48a.9.9,0,0,1-.19.42l.51-.08A.39.39,0,0,0,47.54,2.48Z"/><path class="cls-1" d="M30.52,7.65c.69-.13,1.8.06,1.72-.67,0,.1,0,.31.14.37l.29-.66-.42-.12a1.54,1.54,0,0,1,1.93-.45c-.71.34-.2,1-1.31.78.08.17.33.46.12.6,1.17-.43,2.32-.31,3.46-1.15-1.09-.4.56-.6.12-1.29l-.5.35V5.2l-.65.19c.2.32.3.32.34.69-.9,0-.35-.38-1.08-.71l-1,.25.06-.12a.17.17,0,0,0-.13.14l-3.27.84C29.86,6.86,30.86,7,30.52,7.65Z"/><path class="cls-1" d="M24.88,8.7l-.06.36.44-.82-.91.24,0,.5C24.44,8.85,24.71,8.53,24.88,8.7Z"/><path class="cls-1" d="M26,8.82l-.19-1.14a.67.67,0,0,0,0,1.09c-.38.36-.36-.57-.53.1C25.45,9.28,25.93,8.92,26,8.82Z"/><polygon class="cls-1" points="29.42 7.27 29.34 7.54 29.68 7.54 29.42 7.27"/><path class="cls-1" d="M29.34,7.54H29a1.91,1.91,0,0,0,.19.45Z"/><path class="cls-1" d="M28.51,7.62l0-.07h-.38Z"/><path class="cls-1" d="M28.27,6.94l.22.6H29C28.86,7.15,28.72,6.73,28.27,6.94Z"/><path class="cls-1" d="M26.71,7.59c0-.26-.26-.05-.37,0C26.44,7.64,26.6,7.69,26.71,7.59Z"/><path class="cls-1" d="M17.35,10.48c.11.1.16.15.26.15Z"/><path class="cls-1" d="M118.08,11.71l-.88,0,.06-.2a.64.64,0,0,1-.72,0c0-.1,0-.26.19-.27-1.05-.14-.38,1-1.27,1.16a.27.27,0,0,1,.21.07c.22,0,.38.29.28.42.47-.34.44.09.56-.63.31-.33.57.19.22.45l.85-.38-.47-.15C117.29,11.57,117.86,12.41,118.08,11.71Z"/><path class="cls-1" d="M82.83,6.74l.3-.2A.48.48,0,0,0,82.83,6.74Z"/><path class="cls-1" d="M82.77,6.78l0,0,0-.05Z"/><path class="cls-1" d="M87.82,49.69a.23.23,0,0,0,0,.09l.18-.29h0Z"/><path class="cls-1" d="M62.12,53.9l-.38.22A.64.64,0,0,0,62.12,53.9Z"/><path class="cls-1" d="M50.1,52.47a.74.74,0,0,0-.22-.18C49.89,52.38,50,52.44,50.1,52.47Z"/><path class="cls-1" d="M62.19,53.86h0l0,.06Z"/><path class="cls-1" d="M79.39,51.69l.35-.15A.62.62,0,0,0,79.39,51.69Z"/><path class="cls-1" d="M75.88,52.63a.3.3,0,0,0,0,.07C76,52.67,75.93,52.64,75.88,52.63Z"/><path class="cls-1" d="M45.59,53.73a.92.92,0,0,0,.31,0A.63.63,0,0,0,45.59,53.73Z"/><path class="cls-1" d="M33.93,53.6c0,.32.33,0,.48-.08C34.28,53.5,34.11,53.41,33.93,53.6Z"/><path class="cls-1" d="M45.74,52.59c-.63.17-.27.59-.85.56l.3.63C45,53.17,45.89,53,45.74,52.59Z"/><polygon class="cls-1" points="49.34 53.22 49.81 53.39 49.44 53.08 49.34 53.22"/><polygon class="cls-1" points="52.26 53.16 52.31 53.22 52.76 52.97 52.71 52.91 52.26 53.16"/><path class="cls-1" d="M63.56,53.51c-.64-.08-.51.54-.88.71a17.12,17.12,0,0,0,1.73-.14C63.72,53.95,63.54,53.87,63.56,53.51Z"/><path class="cls-1" d="M65,54.1c0,.37.55.12.43.11S65.08,54.22,65,54.1Z"/><path class="cls-1" d="M74.66,53.45l-.32.28.42,0C74.64,53.69,74.82,53.2,74.66,53.45Z"/><polygon class="cls-1" points="79.59 53.26 79.69 53.37 80.13 53.1 80.03 52.99 79.59 53.26"/><path class="cls-1" d="M108.64,50.38a1.18,1.18,0,0,0,.52-.07Z"/><path class="cls-1" d="M94.56,52c0-.2.07-.44,0-.62l-.92.13a.23.23,0,0,1,.1.13h-.52c.33.28-.25.38-.31.58h1.18a.88.88,0,0,1,0-.2Z"/><path class="cls-1" d="M131.52,45.46l.3.17C131.7,45.52,131.64,45.47,131.52,45.46Z"/><path class="cls-1" d="M16,52.62c-.28.1-.58-.17-.49-.33-.53.46-.61,0-.57.77-.32.41-.8,0-.41-.38l-1,.6.66,0c-.08.63-1.06,0-1.16.7l1.16-.23,0,.21a1.11,1.11,0,0,1,1-.18c0,.1,0,.26-.17.31,1.42-.16.22-1.1,1.36-1.48A.46.46,0,0,1,16,52.62Z"/><path class="cls-1" d="M137.26,45.76a1.17,1.17,0,0,0,.33-.21C137.28,45.6,137.23,45.68,137.26,45.76Z"/><path class="cls-1" d="M122.65,48.56l.06-.22C122.65,48.45,122.43,48.54,122.65,48.56Z"/><path class="cls-1" d="M27.29,52.49h0l.06-.05Z"/><path class="cls-1" d="M78.4,50.72l.37-.13A.66.66,0,0,0,78.4,50.72Z"/><path class="cls-1" d="M43.47,52.87a.69.69,0,0,0-.32.06A1,1,0,0,0,43.47,52.87Z"/><path class="cls-1" d="M124.66,52l3.65,0C127.27,52,126.3,52,124.66,52Z"/><polygon class="cls-1" points="50.59 51.81 50.53 51.75 50.07 52.02 50.13 52.08 50.59 51.81"/><path class="cls-1" d="M109.37,52.48l-.54,0A1.27,1.27,0,0,0,109.37,52.48Z"/><path class="cls-1" d="M113.5,50.61l.26,0A.73.73,0,0,0,113.5,50.61Z"/><path class="cls-1" d="M116.57,51.06c-.89,0-2.19-.49-2.3.23,0-.1.1-.3-.07-.39l-.54.57.48.21a2.31,2.31,0,0,1-2.48,0c1-.16.52-.9,1.82-.44,0-.19-.28-.52,0-.61-1.56.14-2.93-.26-4.56.28,1.24.65-.85.45-.48,1.23l.69-.22-.07.2.84,0c-.16-.36-.28-.38-.23-.75,1.11.2.33.45,1.13,1h1.25l-.11.1a.21.21,0,0,0,.19-.1l4.21,0C117.14,52,116,51.56,116.57,51.06Z"/><path class="cls-1" d="M123.76,51.63l.19-.33-.8.66,1.18,0,.12-.49C124.34,51.61,123.91,51.83,123.76,51.63Z"/><path class="cls-1" d="M122.39,51.18l-.14,1.15a.61.61,0,0,0,.32-1.05c.58-.24.25.65.68.06C123.26,50.91,122.55,51.12,122.39,51.18Z"/><polygon class="cls-1" points="117.8 51.74 117.98 51.5 117.57 51.41 117.8 51.74"/><path class="cls-1" d="M118,51.5l.41.09a1.59,1.59,0,0,0-.1-.49Z"/><path class="cls-1" d="M120.08,52l-.6-.13A3.42,3.42,0,0,0,120.08,52Z"/><path class="cls-1" d="M119,51.73l.46.1-.47-.18Z"/><path class="cls-1" d="M119.1,52.37l-.08-.64-.63-.14C118.44,52,118.49,52.45,119.1,52.37Z"/><path class="cls-1" d="M121.19,52.18c0,.26.3.13.46.06C121.52,52.21,121.35,52.12,121.19,52.18Z"/><path class="cls-1" d="M133.2,52.09l.26.23C133.37,52.19,133.33,52.13,133.2,52.09Z"/><path class="cls-1" d="M139.71,45.11c-.38,0-1.16-.13-1.41.17.22-.2.78.2,1-.11l0,.1Z"/><path class="cls-1" d="M138.47,17.47l-1.22,0,.06-.2a1.19,1.19,0,0,1-1,0c0-.1,0-.26.23-.28-1.48-.06-.41,1.06-1.64,1.24a.49.49,0,0,1,.3.06c.3-.05.56.26.44.4.62-.37.62.06.71-.67.4-.35.81.15.36.44l1.14-.43-.67-.12C137.36,17.37,138.25,18.17,138.47,17.47Z"/><path class="cls-1" d="M10.47,27.75a1.19,1.19,0,0,0-.29.27C10.48,27.92,10.51,27.83,10.47,27.75Z"/><path class="cls-1" d="M129.44,19.46h0v.1Z"/><path class="cls-1" d="M129.85,19.53c.2-.18.68-.15.59-.53C130.45,19.42,129.57,19.05,129.85,19.53Z"/><path class="cls-1" d="M130.66,19.67l-.6.1.37.17C130.46,19.85,130.44,19.68,130.66,19.67Z"/><path class="cls-1" d="M8.52,28.75l0-.1-.39.24c.38-.07,1.19-.11,1.38-.45C9.35,28.68,8.71,28.4,8.52,28.75Z"/><path class="cls-1" d="M160.48,23.34l.08-.2a1.59,1.59,0,0,1-1.17,0c0-.1,0-.26.27-.27-1.72-.08-.49,1.05-1.91,1.22a.66.66,0,0,1,.35.06c.35,0,.65.27.51.41.72-.36.72.07.83-.66.46-.35.94.16.41.44l1.32-.42-.78-.13c.23-.6,1.25.21,1.52-.49Z"/><path class="cls-1" d="M157.51,23.26c-.23.17-.45.09-.7.1l1.2-1c-.36-.81-1.53-.36-2-.71.56.73-.46.35.64,1l-.62.75-1-.22c0,.26-.75.46-.26.7a.91.91,0,0,1,.45-.09c-.12.56-1.34.25-1.06.83.8-.13.92,0,1.42-.46a3.7,3.7,0,0,1,1.59.43c.22-.08.26-.43.53-.49l-.19,0Z"/><path class="cls-1" d="M144.59,22.43h0l-.08,0Z"/><path class="cls-1" d="M151.39,25.17h0v.1Z"/><path class="cls-1" d="M149.07,30.42a1.51,1.51,0,0,1,.26-.28C149.16,30.26,149,30.36,149.07,30.42Z"/><path class="cls-1" d="M153.85,22.6l-.29.54c-.73-.49-1.19-.15-1.92-.21l1.63.32c.75.47.24.56-.36.65.15,0,.28,0,.32.14.08-.2,1.81-.6.36-.74.07-.63.94-.27,1.33-.42-.28-.15.15-.4.07-.63a1.31,1.31,0,0,1-.74.2c-.14-.29.35-.47.72-.36-.45-.34.6-.49-.05-.75a5.65,5.65,0,0,0-3.4,1.29A4.66,4.66,0,0,1,153.85,22.6Z"/><path class="cls-1" d="M152,28.78l0,0a.31.31,0,0,0,.07-.05Z"/><path class="cls-1" d="M151.26,28.82c.64-.16-.44-.61.24-.86.93-.27,1.74.45,2.26-.26-.88-.09-2.06-.51-2.43-.19l.57,0-1.32.84c0-.33-1.15.18-1.12-.35.45-.08.86-.07,1.21-.12-.08-.23-1.19-.15-1.66-.23l.59.2c-1.07.41-2.42.24-3.45.54.82-.4-1-.38-.36-.8.27-.27.69.17.57,0,.09-.47-.63-.11-.83-.46-.12.3-1.17.44-.56.81-.33-.22-1.09.24-1.54-.1.13.55-.87.33-1,.57a1,1,0,0,1-.51-.28c.43-.16,1-.38,1.51-.62h0c.22.09.63.1.51,0v-.21l.24-.11a1.18,1.18,0,0,0,.79-.35l.2-.09a2.87,2.87,0,0,1,1.33.35c.19-.09.21-.44.45-.51l-.16,0,0-.44a1.84,1.84,0,0,1,.88-.09c-.07.22-.21.41-.67.49a.52.52,0,0,1,.31,0c.31-.06.58.24.47.39.62-.39.64,0,.71-.69.4-.37.84.12.38.43l1.15-.47-.7-.1a.33.33,0,0,1,.06-.09,2,2,0,0,0,.5-.15c.31,0,.65.09.76-.3a.88.88,0,0,1,.62.11l-.11.3c.07,0,.57-.27.48-.61a3.78,3.78,0,0,1-1.46.13,1.94,1.94,0,0,1,1.24-.48l.06-.53c.54-.55,1.06.28,1.6-.26L152.4,24a.32.32,0,0,1,.11-.05c-.28,0-.52.11-.59.24a1.29,1.29,0,0,1-1.54-.79c-.43-.18.17-.66.13-1-.7.1-.67.69-1.38.78-.22-.09-.08-.22,0-.26l-.52.29c0-.16-1.22-.31-.5-.67.11,0,.3,0,.45,0-1-.4-2.65-.86-2.58-1.45-.53-.14-.39.15-1.23,0-.4.41,0,.85-.92,1.12l.73.23a4.38,4.38,0,0,1,.45-.24l-.76,0c.48-.19.4-.41.55-.81,1.17,0,1.48.73,2.07.93-.37.31-1,.21-.77.72-.58-.47-.66.42-1.33,0l.13-.14c-.56.38-.63-.11-1.09.24,0-.1,0-.16-.08-.23-.37.08-.43.14-.4.22l0,0a1,1,0,0,1,.13.25c0,.09-.09.2-.4.34-.88-.1-.27-.84-.51-1.1,1.49-.65,0-.86,1.6-1.38,0-.69-.62-.79-1.47-.73.55.31-.38,1,.35,1.5a2.58,2.58,0,0,0-1.23.83,6.4,6.4,0,0,0-1.09.27,2,2,0,0,1-.3-.1l0-.1-.6.49-.8-.29c.52-.71,1.13-.34,1.53-.76-1-.75-1.34.68-2.47.6-.93-.85,1.17-.45,1.18-1.13-.23.18-.84-.19-.77-.4,1.06.28.66-.42,1.83,0-.58.22.08.23,0,.53a3.33,3.33,0,0,1,2.07-.19c.19-.5-.67-.43-1.16-.67-1,.53-1.9-.48-2.64.14-1,0-.07-.49-.13-.55-.9-.26-.4.41-.7.52-1.27.33-1.49-.47-2.28-.65l3.64-.45c-1.06.12-2,.2-3.65.45l-.2,0a3.39,3.39,0,0,1-2,.43.58.58,0,0,0-.1-.88c.57-.3.33.62.7,0,0-.42-.73-.15-.89-.06l0,.95c-.64,0-1.29-.08-1.85-.11.17-.24,0-.43-.09-.65-.56.61-.62.66-.9.78h0l-.48.23-.07-.29-.24,0,.08-.23a.22.22,0,0,0-.11.23l-.36,0a2.17,2.17,0,0,1-.08-.25h0a3.05,3.05,0,0,0-.13-.46.66.66,0,0,1,.63.06l-.09.3c.06,0,.49-.28.4-.62a5.09,5.09,0,0,1-1,.18s0,0,0-.06,0,0,0,.06l-.24,0a1.56,1.56,0,0,1,1.06-.5l0-.53c.46-.56.91.26,1.37-.29l-.53-.36s.06,0,.09-.05c-.24.05-.45.12-.51.25-.8.29-1.2-.47-1.33-.76a3.29,3.29,0,0,1,.54,0L129,18c.46.11,1.16-.17,1.83-.08l.09.24-.15,0a.48.48,0,0,1,.18,0l.05.14a6.65,6.65,0,0,1,1.38-.23h0l.33,0c-.17.47-1.11.23-.88.79.68-.14.79,0,1.21-.47a2.83,2.83,0,0,1,1.37.41c.19-.08.22-.43.45-.5l-.16,0,0-.85a9.05,9.05,0,0,0,2-1c.49.54,1.16-.16,1.94,0,.11.12.35.26.22.5l-.21,0a6.07,6.07,0,0,0,3.07-.82l.49.54c1.57.15-.33-.89,1.26-1.1.41.58,2,.2,2.05.69.3-.07.43,0,.45-.42-.27,0-.86.1-.54-.33.54-.19.81.11,1.24.06,0,.1-.32.43-.16.35,1-.29,3-.35,4-1.38-.38.11-.4.48-.92.3,0-.26.27-.23.37-.37-.08-.49-.51.36-1.05,0l.86-.63-.52-.43,2-1.38c-1.67-.27-2.36,1.59-3.74,1,.21-.16,0-.28-.06-.4-.42.26-.94.28-1.19.61l-.69,0a1,1,0,0,1,.94-.94c-2.45.05-4.28,1.45-6.76,1.08-.11-.12.32-.17.13-.25-.32.17-.86.37-.83.53,0-.1.08-.31.29-.33-1.27.31-2-.47-2.78,0-.06-.32.62-.24.51-.35-1.27-.22-1.88.81-3.15.85.4-.47-.3-.46-.65-.72a44.48,44.48,0,0,1-4.79,1c.37-1.16-1.75,0-1.92-.93-.35,0-.89.2-.91.57.19-.19.67.09.62.29-.51.09-1.29.15-1.34.62l-.65-.45c0,.37-.21.82-.56.82-.66-.72-.19.14-.57.26a.56.56,0,0,0-.29-.35,2.76,2.76,0,0,0,.36-.71c-.54-.07-.46.15-.84.26-.14-.28.35-.8.75-1l-.7-.25a6.52,6.52,0,0,1-1.21.91c-.28-.13-.52-.11-.67.3l-.14,0a4,4,0,0,1-.74-1l1.82-.15-1.83.13a.44.44,0,0,0-.24-.19,1.66,1.66,0,0,0,.11.2l-1.06.1c-.66-.59-1.34-1.22-1.47-.47l0-.24c0,.18-.06.36-.08.54a.26.26,0,0,1-.27,0l.17-.34-.79.73.49,0a.17.17,0,0,0,0,.06l.1-.07.3,0,0,.32a1.46,1.46,0,0,0-.41-.06,1,1,0,0,1,0-.18l-.58.37c-1.21.9-1.4-.5-2.16-.81l.16-.08c-.38-.42-1.33-.16-2-.11.17-.09.38-.11.35-.43,0,.4-.54.08-.47.43a.8.8,0,0,1-.28,0l.06-.5c.37-.54.63.3,1-.22l-.35-.39s0,0,.07,0c-.17,0-.33.1-.38.22-.48.2-.72-.26-.83-.6.7.05,1.34.15,1.42-.42l.3.11c.43.49.11.57-.27.64.09,0,.17.05.19.15.06-.2,1.15-.54.27-.72a.51.51,0,0,1,.09-.25l.1.29a7.26,7.26,0,0,1,1.51-.21l-.2.33-.6-.25c0,.26-.49.43-.21.69a.39.39,0,0,1,.28-.07c-.12.56-.84.21-.71.8.5-.11.56,0,.9-.41a1.64,1.64,0,0,1,.95.47c.14-.07.19-.42.36-.47h-.12l.06-.85c-.16.17-.28.07-.44.08l.81-.93s0,0,0-.07a1.57,1.57,0,0,0,.66-.33,1.28,1.28,0,0,0,.11-.21l.9,0c-.43.46-2.06.38-1.77,1.11a15.81,15.81,0,0,0,3.44-1.37c.49.56,1.2-.12,2,.11.11.12.35.27.21.51l-.22,0a6.4,6.4,0,0,0,3.18-.71l.48.56c1.6.21-.3-.9,1.34-1.05.39.6,2,.3,2.08.79.31-.05.45,0,.49-.39-.28,0-.89.06-.54-.36.56-.17.83.15,1.27.12,0,.1-.35.42-.18.34,1.09-.23,3.12-.2,4.17-1.18-.39.09-.44.46-1,.26,0-.26.29-.22.41-.35-.06-.49-.54.33-1.08,0l.92-.58-.51-.46,2.1-1.28c-1.72-.35-2.53,1.47-3.92.81.22-.15,0-.28,0-.41-.45.24-1,.23-1.26.55l-.71,0a1,1,0,0,1,1-.89c-2.54-.08-4.48,1.24-7,.78-.11-.12.34-.16.15-.24-.34.16-.9.33-.88.5,0-.1.09-.3.32-.32-1.32.27-2-.54-2.87-.14,0-.33.65-.21.54-.34-1.3-.26-2,.73-3.28.75.43-.46-.29-.47-.65-.73a47.56,47.56,0,0,1-5,.91c.4-1.16-1.81,0-2-1-.36,0-.92.19-1,.56.2-.19.69.09.63.3-.53.09-1.33.14-1.39.6l-.67-.46a1.34,1.34,0,0,1-.09.36c-.3-.08-.56-.11-.68.06l.37,0-.21.21h-.13c-.2-.19-.23-.14-.24,0l-.39-.06a2.23,2.23,0,0,0,.29-.57c-.56-.07-.48.15-.87.25-.14-.28.36-.8.78-1l-.67-.24c.36-.21.62-.6,1-.28l-.07.3a.71.71,0,0,0,.31-.62c-.46.1-.55.24-1,.15a1.1,1.1,0,0,1,.81-.5l0-.53c.36-.56.69.27,1-.28l-.39-.37s0,0,.07-.05c-.18,0-.34.12-.39.24-.61.28-.91-.48-1-.77-.28-.17.11-.67.09-1-.46.11-.44.69-.9.8a.15.15,0,0,1,0-.26l-.34.29c0-.16-.8-.29-.33-.66.07,0,.2,0,.3,0C103.07,2.47,102,2,102,1.45c-.35-.14-.25.15-.81,0-.26.42,0,.85-.6,1.14l.48.22a2.85,2.85,0,0,1,.29-.25l-.5,0c.32-.19.26-.42.36-.82.77,0,1,.71,1.36.9-.24.32-.65.22-.5.73-.38-.46-.43.43-.87,0l.09-.14c-.36.39-.41-.1-.71.26a.27.27,0,0,0-.05-.23c-.65.22.19.31-.46.8C99.51,4,99.9,3.24,99.74,3c1-.68,0-.86,1-1.41,0-.69-.41-.79-1-.71.37.3-.24,1,.25,1.49-.84.34-.77,1.69-1.71,1.06l0-.1-.38.5-.45-.23a1.65,1.65,0,0,0,.65-.32,1.31,1.31,0,0,0,.19-.43l.07-.09,0,0a2.37,2.37,0,0,0,0-.51,2.05,2.05,0,0,1,1.19-.1c.12-.51-.45-.42-.77-.64a.63.63,0,0,1-.48.18c0-.29-.08-.58-.09-.89s-1.34-.27-1.4.34c-.39-.07-.13.47-.3.58a.73.73,0,0,1-.81-.06,3.1,3.1,0,0,1,.37-.47c0-.73-1.07-.34-1.36-.9.06.06.17.18.14.28L94.31.39c.59.23,0,.73-.36.8s-.67.08-.62-.13l.34-.17c-.45-.21-.95.57-1.43.2,0-.16.14-.25.16-.35a1.71,1.71,0,0,1-.25.2l0-.11L92,1.07c-.38.22-.79.3-1.34.58L91,.91a2.09,2.09,0,0,1-2.16.54c0-.09.11-.14.3-.13L88.94.69a.72.72,0,0,1-.27.71,5,5,0,0,1-.57-.17c0-.21.05-.4.25-.47C88,.72,87.75.32,87.4.55a3.42,3.42,0,0,0-1,.54c-.14,0-.45.2-.45.19V2H86c-.3-1-.59-.52-.86-.46l-.06-.26,0-.09a.84.84,0,0,0-.45.19,2.16,2.16,0,0,1,.14-.83c-.66.35-1.92-.41-2.89-.47l.14.7c-.8.54.07-.67-.58-.68l-.26.53,0-.06-.44.66c.33,0,.15-.55.53-.27s0,.53-.06.93c-.23-.2-1,0-.55-.51l-.83.76c0-.26.18-.39.26-.54l-.62.16,0-.1C79,2,78.3,2,77.94,2.54a.65.65,0,0,1,.27.22c-.29,0-.57.05-.82.09v0c.08-.05.18-.13.09-.23H77.4a1.31,1.31,0,0,1,.41-.88c.2.4.62-.16,1-.21-.44-.23-.56.12-.89.17.22-.33-.47-.39-.48-.65s.14-.82.58-.59c.65,0,.1.65.29.52.21.66.89-.17,1.29,0,0,.06-.08.14-.14.19.33-.05,1-.1,1.07-.57L79.66,1c-.19-.14.24-.44,0-.69A.71.71,0,0,1,79,.4l0-.21a2.22,2.22,0,0,0-1.9.07,16.7,16.7,0,0,1-.45,2.4,11.86,11.86,0,0,0-2.7.2,1.48,1.48,0,0,1,1.3-.58L75,2.54c.52.08.69-.31.89-.54,0,.1,0,.16.11.28a.74.74,0,0,0,.4-1.09l-.14.19L75.91.9c-.06,1-1,.47-1.52.93.32-.45.57-1.35,1.07-.79L75.37.56c.39-.09.74.38.93-.11l-.45.14V.32c-.33.05-.72.49-1,.21-.24.34-.46.87-1.17.81l0-.1c-.42.94-1.38-.45-1.71,0-.14.92.81.32,1.07.68-.27.38-.63-.09-.33.42-.66.48-.47-.75-1-.09l.34.2c-.23.44-.67.22-.9.66,0,.63.44,0,.94.13l-.18.5.94-.6c.23-.81,0-.79.54-1.39A2.88,2.88,0,0,1,73.85,3l-.11.47-.12,0c-.25-.06-.51,0-.53-.41-.24.54-1,1-.82,1.51l-.1,0a2.21,2.21,0,0,0-1.83-1c-.18,0-.17.35-.1.84h0a1.23,1.23,0,0,0-.57-.26c.12-.24.19-.55.45-.59l-1.42-.07.09-.25-.53.39c.3-.16.8-.05.72.48-.6.43-1-.08-1.47.64-.08-.95-.28-1.08-.14-1.64a.09.09,0,0,1,.07,0A2.31,2.31,0,0,1,68.29,2c-1.2-.2-.87.1-1.92,0-.14-.54.9-.67.62-1l1,.17c-.16.05-.17.18-.24.28.63-.46.92,0,1.37-.64.34.23-.46.46-.1.52-.29.13-.53.76-.63,1.2.78.16.37-.73,1-1l.52.44c.29-.12-.12-.28-.15-.44.35-.16.51.18.78.16-.09-.12-.28-.25-.25-.46.48.38.9.08,1.38.82-.27-.35.2-1,.39-1.1l-.91-.7c-1.07.32-1.78,0-2.92.48l0-.31c-1.93-.77-1.41,1.6-3,1.77-.11-.74-.72.17-.73-.56.48,0,.36-.27.19-.6-.25.28-.38.84-.94.62.16-.4-.34-.67.17-.87-.74-.09-1.13,0-1.44.71-1.11.75-.44-.79-1.57-.28l.14-.3L60.38,1l.28.34-.81.54c-.48.47.27.45.23.75l.12-.56c.36.09.8-.44.92-.06-.56.15-.38.56-.58.8L61,2.53l.22.39c.54-.05,1,0,1.23-.49-.24-.18-.32.43-.55.14.19-.71.86-.83,1.48-1.12,0,.16.24.19.17.33s-.12.07-.19,0c.08.3-.26.53.36.65A9.7,9.7,0,0,0,63.26,4a1.49,1.49,0,0,1-1.13.12V4c-.31,0-.91.53-1,0-.18.14-.68.35-.12.56L60.16,5c.05-.88-.79-1,0-1.77l-.83.37V3.51a.35.35,0,0,0,.05-.16c.11,0,.16,0,.2.13.24-.65-.23-.76-.71-.75l-.06.5c-.44-.23-.74-.64-1.26-.36l-1.07,2L56.14,5c-.2-.27-.74,0-.58-.58-.08-.22.09-.36.35-.28,0,.06,0,.1,0,.16a1,1,0,0,0-.32-1c.31,0,.36.09.55-.15l-.32,0c.44-.16,1.06-.93,1-1.35-.07.62-.43.06-.7,0,.18-.14.54-.52.22-.55-.08.25-.88.69-.26.86-.23.19-.54.51-.84.38.3-.34.05-.51.1-.93a1.91,1.91,0,0,0-.22,1c-.91-.39-1.4-1.42-2.31-.88-.12.09.56-.26.52.15-.62.78-1-.61-1.58-.24l.26.65a4.19,4.19,0,0,1-.84.4c-.09-.22-.8-.59-.35-.86-1.1-.25-.73,1.54-2,1.5a2.36,2.36,0,0,0,1.07,0c-.41.43,0,.31,0,.78-.34-.39-1.18.11-.65-.52-.37,0-1.12.08-1.26.38l.36.18a1.5,1.5,0,0,0-1.15,1.06c.65-.16.51-1,1.36-1,1,.33-.15.51.54,1.08l.58-.58-.32,0c0-.67,1-.07.83-.86.75.53.89.13,1.7.62.14-.3-.13-.27-.34-.29.37,0,.29-.81.84-.39.26.07,0-.57-.43-.51a7.09,7.09,0,0,1,1.14-.16l-.49-.46.43-.07-.4-.24A2.31,2.31,0,0,1,55,2.58c-.65.62-1.87.56-2.17,1.47.19.23.49-.68.79,0l.16-.51c.23-.19.79-.45.9,0a3.49,3.49,0,0,0-1.07,1.35.18.18,0,0,1-.14.2h0c-.2.07-.54.07-.71.21-.26-.07-.12-.37-.11-.48-.91-.5-1.28,1.13-2.2.84-.07-.42-.76-.43-.58-.67-.53,0-.74.51-1,.85-.13-.37-.79,0-.6-.46l-.38.7c-.35-.18-1,.24-1.15-.19-.33.18,0,.67-.52.53,0-.1,0-.16.07-.15a.73.73,0,0,0-1,.24c.36.08.1.11.52.14a.59.59,0,0,1-.88.46c.53-.74-.59-.56-.35-1-.89.07-1.34.82-1.94,1.51a.64.64,0,0,0-.71.37,4.43,4.43,0,0,0-2.43.78h.1l-.39.44c-.26,0-.12-.68-.5-.44,0-.62.7-.22,1-.72-.82-.46.57-.7,0-1.09-.07,1.24-1.51.44-2,1.19-.63,0,.19-.56-.13-.58l-.13.41a.45.45,0,0,1-.4-.44,2,2,0,0,0-1.84.87c.65-.39-.13.62.56.49a1.73,1.73,0,0,1-1,.54c.38-.25-.71-.75.24-.72-.24-.58-.43.19-.85.18.17-.25.56-.71.51-.76-.46.92-2.05-.12-2.18.49a8.76,8.76,0,0,1-1,1.29c-.57.2-1.27.31-1.8.51a1.84,1.84,0,0,1-.36,0l.06-.26c-.37-.06-.85.3-1.37.29l-.2-.42a4.87,4.87,0,0,1-1.49.49c0,.26.53.11.36.47.26,0,.48-.15.32-.41.26,0,.36.37.62.53l-1,.5c-.09,0-.12,0-.14-.08V12L26.2,12a.4.4,0,0,1,0-.08L26,12l-.55.06a.73.73,0,0,1,.18-.08l-.38.08H25c.29-.46,1.37-.61,1-1.27a12.35,12.35,0,0,0-1.7,1.26l-.46-.16.24-.16-.8-.32c-.11-.21.14-.47.43-.58s.35.06.19.16c.72-.57-.69-.11-.25-.68.21.05.44-.1.58-.1-1-.22-1.24.73-1.92,0a1.94,1.94,0,0,1-2,.89c.27-.37-.88.21-.57-.47-.26.37-1.07.05-1.13.47.09-.16.45-.21.72-.11-.31.21-.29.58-.72.58a.19.19,0,0,1,0-.16c-.48.42,0,1.31-.91,1.47-2.42.68.12-1.41-.27-1.62,0,.31-1.09.73-1.63.53l.09-.16c-.23.16-.56.47-.88.21a8.12,8.12,0,0,1-.4,1.42l-1.09.28.18-.32a1.91,1.91,0,0,1-.67.27c-.16-.36.18-.32.49-.53q-.36-.47-.65.17H13c-.25.27-1.19,1-.34,1-.55.48-.88-.25-1.27,0-.1-.31.27-.47,0-.68a1.61,1.61,0,0,0-1,.22c.35,0,0,.32.51.41-.17.21-.68.38-.63.53.15-.1.25-.26.58-.11a2.42,2.42,0,0,1-1.72.24.57.57,0,0,1,.1-.24c-.64.69-1.78.74-2.15,1.48l.24.09A.53.53,0,0,1,8,16c-.52.27.5.52,0,.89-.75.42-1.6-.12-1.9.67.78-.08,1.88.11,2.13-.26l-.5.06,1-1.06c.1.31,1-.38,1,.14-.37.16-.73.22-1,.33.11.21,1.06-.07,1.48-.07l-.55-.1c.84-.59,2-.66,2.88-1.14-.63.53,1,.2.47.73-.18.32-.63,0-.5.06,0,.47.56,0,.8.3,0-.32.91-.64.32-.89.25.12.63-.19,1-.24a2.25,2.25,0,0,0-.74.89c.26-.16.2-.52.62-.43.06.26-.15.26-.2.42a.31.31,0,0,0,0,.08c-.73.57-1.42,1.12-1.8,1.38l.18-.32c-.59.79-1.43.23-2.07.87,0-.1.09-.16-.05-.15-.92.06-1.11,1.06-1.91.76l0-.31c-.05,0-.44.37-.29.68.59-.22.68-.37,1.23-.38a1.6,1.6,0,0,1-1,.69l.06.53c-.35.63-1-.09-1.32.55l.6.25s-.05,0-.08.07c.23-.1.43-.2.46-.34a1.12,1.12,0,0,1,1.48.5c.38.09,0,.6.08.93a3.44,3.44,0,0,0-1.13.57c.45-.09.5-.45,1.09-.24,0,.26-.33.21-.46.35.06.49.62-.32,1.23,0l-1,.57.57.47L7.8,25.12a2.7,2.7,0,0,0,.79,0,3.29,3.29,0,0,0-1.35.9c.37-.13.37-.5.9-.36,0,.26-.25.25-.35.4.11.48.49-.39,1.05-.09L8,26.68l.54.4-1.87,1.5c1.69.17,2.26-1.74,3.69-1.22-.2.17,0,.28.09.4.41-.28.92-.34,1.15-.68l.69-.06a1,1,0,0,1-.88,1c2.45-.21,4.2-1.71,6.71-1.47.12.11-.31.19-.12.25.32-.19.84-.41.81-.57,0,.1-.06.31-.28.35,1.25-.38,2,.36,2.79-.11.07.32-.61.27-.49.38a2.06,2.06,0,0,0,1.14-.2l-1,2.25-.23-.22c-1.24-.06-.39.46-.61.85-.18,0-.28.07-.33.23a2,2,0,0,1-.33.09c-.45-.56-2.06-.09-2.18-.57-.31.08-.45.07-.45.44.28,0,.89-.15.58.3-.55.22-.85-.06-1.29,0,0-.1.31-.45.15-.36-1.08.35-3.13.52-4.08,1.61.39-.13.39-.5.94-.36,0,.26-.27.25-.37.39.11.48.51-.39,1.09-.08l-.86.68.56.4-2,1.49c1.75.17,2.37-1.72,3.84-1.2-.13.1-.09.18,0,.26l-1.15.75c1.39.24,2.15-.9,3.13-1a1,1,0,0,1-.87.68,8.64,8.64,0,0,0,1.61-.3.93.93,0,0,1,.1.14c.41-.23.88-.27,1.17-.53l.19-.06h.6a1,1,0,0,1-1,.92,9.89,9.89,0,0,0,2.39-.35l.23,1.19,2.25,4,5.37-1.23.32.1c-.34.37-.61,1-.75,1.1-.6.75-1.27-.63-1-.57-.68.24-1.23,1.75-2.23,1.18-.41-1.34-2.52,1.5-2.65,0V39c-1.29-1-2.33.91-3.71,0a1.37,1.37,0,0,1,.06-.22l-2.39,4.82.85,4a1.13,1.13,0,0,1-.51.33,1.24,1.24,0,0,0,.63.23l.11.52,1,1.62c-.41.21-.43-.06-.49.59-.36.36-.74-.14-.33-.43l-1,.45L18,51c-.17.61-1-.18-1.19.53L18,51.45l-.06.2a1,1,0,0,1,.93,0l0,.08a1.08,1.08,0,0,0-.81.56,2.68,2.68,0,0,1-1.37-.19c-.17.11-.14.46-.36.56l.15,0,.15.84c.16-.21.35-.15.56-.2l-.82,1.13c.43.74,1.31.14,1.73.41-.57-.64.32-.41-.68-.85l.38-.83.85.07c0-.26.54-.56.1-.73a.66.66,0,0,1-.35.15c0-.48.74-.47.79-.77.39-.19.25-.64.51-.94l.48.75-.05.07.14.07.11.17-.2.22A.19.19,0,0,1,20,52c0,.21-1.38.85-.18.78,0,.63-.72.4-1,.6.25.11-.06.42,0,.63.15-.1.31-.31.57-.3.16.27-.21.52-.53.46.43.27-.41.56.16.74a4.4,4.4,0,0,0,2.57-1.75,3.34,3.34,0,0,1-1.91.36l.15-.57c.66.38,1,0,1.56,0a.43.43,0,0,1,.13.07c-.17-.27-.16-.38-.13-.46l1-.2s0,0,0,.06l.13-.08a.26.26,0,0,1,.09.26.51.51,0,0,1-.2,0c.37.33-.46.5.06.75a4.63,4.63,0,0,0,2.07-.8c.08.07.08.17-.1.32-.09,0-.25,0-.38,0,.85.27,2.3.51,2.33,1.1.45.07.3-.2,1-.11.27-.46-.13-.84.59-1.23l-.63-.13a3.54,3.54,0,0,1-.33.3l.62-.13c-.37.25-.27.46-.34.88-1,.17-1.31-.53-1.83-.65.26-.35.78-.33.53-.81h0c.53.37.47-.51,1.08-.17l-.09.15c.4-.45.53,0,.86-.38a.18.18,0,0,0,0,.14.53.53,0,0,1-.12.11c-.08,0-.24,0-.36,0,.34.16.78.33,1.17.52-.35.48.31.59-.71,1.19.09.68.62.71,1.31.53-.49-.23.17-1-.5-1.44a1.29,1.29,0,0,0,.2-.13,1.9,1.9,0,0,1,.43.32h-.06a.29.29,0,0,0,.24.36h0a.63.63,0,0,0,.2,0,2.66,2.66,0,0,1,.61.12,1,1,0,0,1,.69-.24.62.62,0,0,0,.24.47.36.36,0,0,0-.19.12c.06.24.23.1.37,0a1.73,1.73,0,0,0,.76,0c-.19-.12-.17-.32-.13-.54a.65.65,0,0,0,.41-.26l.17,0,.21.06c.08.14-.25.45-.21.49.59.12.44-.21.44-.43a1.15,1.15,0,0,1,.24.09c.44-.34.89-.13,1.31,0a1.08,1.08,0,0,0,.64.18,1.34,1.34,0,0,1,.45-.34c.17.12-.25.47-.21.51.72.22.3-.43.53-.55,1.08-.41,1.22.57,2,.59a1.48,1.48,0,0,1,.75-.39l0,.06,0-.08A12.07,12.07,0,0,1,41.29,53c-.13.24,0,.42.1.65.59-.91.44-.62,1.09-1.11l.26.44c-.22-.59.68-.79.5-1.22-.63.21-.27.59-.82.61l-.52-.23c.55-.13,1-.8,1.5-.3a.52.52,0,0,1-.16-.37l1.17-.13.12-.18h0c0,.14.11.24.33.12l-.13-.13a1,1,0,0,0,.42-.21,4.18,4.18,0,0,1,.57-.1.61.61,0,0,0,0,.3l-.21.19-.12-.18a4.29,4.29,0,0,0-.81.41s.05,0,.06-.05c-.87-.12-.94.19-.93.54a2.62,2.62,0,0,1-.59.18,1.14,1.14,0,0,0,.6.12.46.46,0,0,1-.3.5c.42,0,.77.39,1.2.12a5.31,5.31,0,0,0,1.42-.76c-.55.42-.89.07-1.37-.18.4,0,.42-.43.78-.19l-.1.15.31-.25a.92.92,0,0,1,.16.06l-.08-.12h0c.11.48,1.18.11.59.74.39-.11.32-.28.41-.45v0a.67.67,0,0,0,.33.07l-.09.13.51.15-.39-.29a.78.78,0,0,0,.72-.53,1.11,1.11,0,0,1,.18.69c-.35.32-.91.81-1.11.22.05.06.18.08.2,0-1.56-.33-.47,1-1.23,1.26.4,0,.72.44,1.14.2a4.66,4.66,0,0,0,1.4-.7c-.55.4-.85,0-1.3-.24.38.06.42-.41.75-.16l-.1.14.11-.09h0a1.22,1.22,0,0,1,.35-.1c.23.29,1,.09.47.63.5-.12.24-.39.56-.58l1,.19a1.7,1.7,0,0,1-.16.91c.8-.36,2.31.38,3.46.44l-.16-.71c1-.55-.09.67.68.68l.32-.54.05.06.54-.66c-.4,0-.19.55-.65.28s-.15-.38,0-.66h0a1.08,1.08,0,0,1,.81-.13h0l0,.2.07,0a.82.82,0,0,1-.11.12l.14-.11a3.56,3.56,0,0,0,2.26-.14c0-.16,0-.3.07-.45a1.86,1.86,0,0,0,.83-.5h0l.18-.19.41.45a1.28,1.28,0,0,1-.14.26.35.35,0,0,0-.35.23l.18,0a1.08,1.08,0,0,1-.12.12c-.23-.4-.75.16-1.15.22.53.23.67-.12,1.07-.17-.27.33.56.39.56.65s-.18.82-.71.59c-.78,0-.11-.65-.34-.52-.24-.66-1.07.17-1.55,0-.05-.06.1-.15.17-.19-.4.05-1.25.1-1.29.57l1-.4c.23.14-.29.44,0,.69a1,1,0,0,1,.8-.11l0,.21a3.15,3.15,0,0,0,2.28-.07,8.28,8.28,0,0,1,.39-1.69.7.7,0,0,1,.51,0,.76.76,0,0,0-.12.19l-.23.13a.56.56,0,0,0,.22-.09.55.55,0,0,0,.08.54l.17-.19.41.48c.06-.59.52-.64,1-.69a3.91,3.91,0,0,0,.7-.06c-.34.46-.65,1.09-1.15.61l.09.49c-.47.09-.88-.38-1.12.11l.55-.14v.26c.39-.05.87-.49,1.25-.22.3-.34.57-.88,1.43-.81l0,.1c.53-.94,1.64.46,2.06,0a.47.47,0,0,0,0-.4l.49,0a1.41,1.41,0,0,1-.58.79l1.07.71c1.29-.32,2.13,0,3.52-.46l-.06.31c2.06.71,1.83-1.14,3.15-1.63l-.11.09.44.06c-.05,0,0-.14,0-.23l.21,0c.05.37.27.33.47.29l.3,0a.31.31,0,0,1,.07.25c-.58,0-.44.27-.25.6.32-.28.49-.84,1.16-.61-.21.4.38.67-.24.86.88.1,1.36,0,1.75-.69,1.37-.74.49.79,1.87.3l-.19.3.87-.17-.32-.35,1-.53c.61-.46-.3-.45-.24-.76l-.17.56c-.43-.1-1,.42-1.1,0,.68-.14.48-.55.74-.79l-.64.27,0-.06.43-.19c.66-.42-.28-.47-.2-.77l-.21.55c-.44-.12-1,.36-1.15,0,.71-.09.53-.52.81-.74l-.68.23-.23-.41a2.11,2.11,0,0,0-1.44.27.88.88,0,0,0,.11-.34,2.13,2.13,0,0,1,1.37-.11l0,.1c.38,0,1.12-.51,1.22,0l.17-.09h0l1.08-.3,0,.09a.32.32,0,0,0-.08.15c-.13,0-.21,0-.23-.14-.32.54.05.72.55.79a1.51,1.51,0,0,1-.33.35l1-.36,0,.09a.33.33,0,0,0-.07.16c-.13,0-.2,0-.23-.13-.32.65.23.76.81.77l.1-.5.24.12-.43.51-.19.45,1-.52c-.13.24.36.16.15.45.08,0,.45-.14.34-.26l-.21,0a2.24,2.24,0,0,0,.18-.29,1,1,0,0,0,.39-.08l1.36-1.9a.82.82,0,0,0,.29.87c-.39-.06-.44-.12-.7.1l.39.06a1.93,1.93,0,0,0-.59.26.59.59,0,0,0-.23.16,2.37,2.37,0,0,0-.42.4l-.09,0-.74,1-.15.46.95-.58c-.11.25.36.14.17.44.07,0,.42-.17.31-.28l-.2,0,.06-.1h0c.13-.24,1.18-.61.43-.83.29-.15.66-.4,1-.32-.51.26-1.09.87-1,1.24.12-.62.52-.05.83,0-.22.13-.68.51-.3.55.11-.25,1.1-.67.36-.85.29-.18.67-.51,1-.37-.38.33-.1.51-.18.93a1.71,1.71,0,0,0,.32-1l.21.1a2.85,2.85,0,0,0,.82.52,1.49,1.49,0,0,0,1.68.32c.15-.09-.69.25-.61-.16a.71.71,0,0,1,.38-.21.8.8,0,0,0,.7.28c.24.19.49.36.8.21l-.27-.65a3.47,3.47,0,0,1,.66-.26c.22.22.48.49.06.63a.88.88,0,0,0,.85-.13c0,.09,0,.17-.18.25,1.09.23,1.06-1,1.87-1.34h.15l-.1,0a1.25,1.25,0,0,1,.53-.08,3,3,0,0,0-1.13,0h-.13c.38-.32.17-.32.08-.55.41.08.83,0,.28.39.47,0,1.4.11,1.62-.17l0,0a.63.63,0,0,0,.37-.21l-.18-.09A1.88,1.88,0,0,0,95.3,50l-.08,0a1.53,1.53,0,0,0,.24-.37c-.8.14-.69,1-1.72,1-1.15-.36.22-.51-.57-1.09l-.19.15,0,0-.83.49.39.07c-.12.6-1.06.07-1.17.57a2.11,2.11,0,0,0-.54-.13,7.55,7.55,0,0,0-.79-.2l-.22-.11s0,0,0,0a2.76,2.76,0,0,1-.45-.23c-.22.28.12.29.38.33-.47,0-.49.76-1.11.28h0a1.05,1.05,0,0,0,.13-.19c-.2-.22-.59.55-.89.06a1.15,1.15,0,0,0,.37-.36c-.18-.22-.61.43-.89.07.19-.22.33-.44.53-.67,0-.1.07-.16.18-.2h0c.16,0,.38-.06.58-.1l0,.11a1,1,0,0,0,.48.13l0,.15c1,.48,1.53-.85,2.47-.81,0,.41.86.51.6.73a1,1,0,0,0,.43,0,1.5,1.5,0,0,0,.95-.63l.06,0c.09.39,1,.14.66.55l.6-.63c.41.24,1.26-.08,1.4.37.45-.13.14-.66.76-.44,0,.1,0,.16-.11.14a1.11,1.11,0,0,0,1.26-.08c-.44-.14-.1-.13-.62-.22a.31.31,0,0,1,.08-.17.79.79,0,0,0,.38-.22,1,1,0,0,1,.73.09c-.82.64.62.65.24,1a2.51,2.51,0,0,0,.48,0l-1,.65c-.37.41.06.39.19.56l-.28.13-.12.12a.86.86,0,0,1-.4-.09.23.23,0,0,0-.08-.09l0,0a.27.27,0,0,1-.09-.13c.05-.09.22-.19.29-.29l.27-.15-.28,0L97.76,50l0,.06a2.06,2.06,0,0,0-.62.16,9.13,9.13,0,0,1,1-.82c-.86,0-1.05.55-2,.63a1,1,0,0,1,.54.33,2.08,2.08,0,0,1-.71.11,1,1,0,0,1,.5.37c-.29.08-.73,0-1.08.11.21.11.26.23.22.36a4.29,4.29,0,0,0-.52,0c.31.21.23.39,0,.56l-.58.06a.35.35,0,0,0,.15.25h-.59c0,.15.07.29.34.39a.84.84,0,0,1,.28-.36s.08.28.12.29l-.1.46h.08s0-.24.06-.13c.53-.16.92.14,1.26.16-.32-1,1.16-.3,1.59-.59l.49-.14.18,0c0,.11,0,.23-.3.41.24-.19,1-.11.95-.42l1.78,0a.52.52,0,0,1,.15.16.17.17,0,0,0,.07-.16l7.75.19c-.38-.1-.7-.32-1.09-.44.62-.62-.64-.14-.45-.73a.79.79,0,0,1,.89,0c.09-.28-.16-.54-.16-.85l.62-.07c-.37,0-.72-.22-1.1-.28.5-.7-.63,0-.53-.67a.73.73,0,0,1,.85-.09s0,0,0,0h0l.26-.37c.31.12.4.24.38.51h0c-.24.16-.47.35-.28.64l.63-.33,0,.21.79-.16a3.24,3.24,0,0,0-.2-.28,3.12,3.12,0,0,0,.61-.08.78.78,0,0,0,.48.42l1.18-.21-.08.12a.21.21,0,0,0,.17-.13l1.46-.26c.57.18,1.08.39,1.25.11a5,5,0,0,1,.62-.43l.66-.12c.25-.14.25-.25.18-.37.26-.15.52-.29.76-.45a2,2,0,0,0,1.07.33.48.48,0,0,0,.58.12l0-.09a3.33,3.33,0,0,1,.6.08l-.15.23c.43.16,1.14,0,1.78.11l.12.46a7.77,7.77,0,0,1,2-.06c0-.26-.61-.25-.29-.55-.34,0-.63,0-.53.3-.34,0-.33-.45-.59-.68l1.34-.21c.1,0,.14.08.14.12l.13-.48c.34,0,.43.16.36.35.76-.14,1.06-.77,1.83-.57-.36.39-.6.65-1.15.62l.89,0c-.44.43-2,.19-1.77.94A14.87,14.87,0,0,0,126.4,48c.41.59,1.14.1,1.88.4.09.13.31.54.15.54h-.21c1,1,2.15-.11,3.07-.47l.4.69c1.5.34-.21-1,1.36-1,.32.63,1.88.44,1.9.93.3,0,.42,0,.49-.37-.26-.07-.85,0-.48-.41.55-.12.77.21,1.19.22,0,.1-.37.38-.2.32,1.05-.14,3,.06,4-.84-.38.06-.46.42-.93.18,0-.26.29-.19.42-.32,0-.49-.54.28-1-.12l.92-.5-.44-.5,2.1-1.1c-1.59-.49-2.52,1.26-3.78.48.22-.13,0-.28,0-.41-.44.2-.95.15-1.24.44l-.67-.08a1,1,0,0,1,1-.8c-2.08-.25-3.82.58-5.79.38L130,45c3-.74,4.45.38,7-.75l-.13.27c.39.26.43-2.47,4.78.59v.12c.14,0,.13-.27.43,0l-.76-.69c.41-.33.75-.93,1.31-1a1,1,0,0,1,.21.56l1.39-.29.48.75c.4-.45.1-2.08,1.31-1.24-.5-1.12.53-.72.35-1.29.07.14.21.34.33.53.67-.17,1.94-.58,2.22-1.18A25.5,25.5,0,0,1,145.27,38c1,.25.24-.16,0-.53l0,.29c-.59-.24-.64-1-.94-1.15a2,2,0,0,0,0,.2l0-.1a.45.45,0,0,1,0,.29c0,.15,0,.28-.16.24l0-.08a1.49,1.49,0,0,1-.84,0l0-.6c-.35,1.17-3-1.57-3.55-1.57-.62-.72-1.28.27-2-.07-1.16-.12-.63-.84-1.23-1.33-.74-.33.19.69-.1.75l-.5-.43a1,1,0,0,0,.2-.23l-.14,0c.28-.22,1.33-.81.49-.94.62-.39.83.39,1.26.18.05.32-.34.42-.12.67a1.61,1.61,0,0,0,1-.06c-.33-.1.09-.31-.44-.49.2-.18.73-.26.7-.43-.17.08-.28.22-.59,0a2.42,2.42,0,0,1,1.73,0,.58.58,0,0,1-.14.22c.74-.58,1.87-.46,2.36-1.12l-.23-.13a.53.53,0,0,1-.7,0c.29-.1.17-.25.07-.42a1.08,1.08,0,0,1,.28.1l-.14.14c.29-.11.72-.36,1,0a4.09,4.09,0,0,1,.32-.64.65.65,0,0,0,.63-.35l-.38,0,.18-.27,1.27-.05-.27.27a2.39,2.39,0,0,1,.8-.13c.1.39-.27.27-.66.42q.3.53.76,0l-.16,0c.33-.21,1.53-.75.59-.91.72-.36.92.42,1.41.24,0,.33-.41.41-.17.66a2,2,0,0,0,1.17,0c-.37-.12.11-.3-.47-.51.23-.17.83-.23.81-.39-.19.07-.33.21-.66,0a3.07,3.07,0,0,1,2,.11.57.57,0,0,1-.17.22c.86-.55,2.13-.37,2.72-1L152,28.8A.66.66,0,0,1,151.26,28.82ZM134.43,17.58l.23-.09A.42.42,0,0,1,134.43,17.58Zm.18-.5.27-.26h.18A1.09,1.09,0,0,1,134.61,17.08Zm.63-1-.24.31a.71.71,0,0,0-.32-.24A1.1,1.1,0,0,1,135.24,16.1Zm-2.29.95.08-.49c.35,0,.46.11.41.31a1.67,1.67,0,0,0,.32-.13l.2.13-.44.64a.5.5,0,0,0-.11.11l-.83-.2a.28.28,0,0,1-.07.15c-.28,0-.49.1-.38.34a.37.37,0,0,1-.32-.18s0-.05-.06-.08a1.15,1.15,0,0,0-.3-.35l.5-.13a1.25,1.25,0,0,0,.5,0s0-.05-.05-.08l.39-.1C132.9,17,132.94,17,132.95,17ZM44.47,51.57a.16.16,0,0,0,.11,0l-.06,0A.46.46,0,0,1,44.47,51.57Zm39.05.71.05-.16.12.06Zm56.12-22.08a.58.58,0,0,1-.56.11.73.73,0,0,1,.77-.41,3.88,3.88,0,0,1,.82,0,.43.43,0,0,0,0,.11l.11-.1c.32.07.32.23.17.42a.63.63,0,0,0-.25.27l-.07.06c-.3,0-.81,0-1.14,0a1.18,1.18,0,0,0,.39-.29Zm-1.09.95-.64.09a.64.64,0,0,1,.61-.24A.14.14,0,0,1,138.56,31.14ZM105.65,49.49c0-.24.1-.47,0-.57a3.06,3.06,0,0,1,.91,0C106.34,49.23,106.11,49.55,105.65,49.49Zm-18,1.88.51.5h-.55l.46.29A5,5,0,0,1,86,52,6.5,6.5,0,0,1,87.62,51.37Zm-17.46.87-.3-.05.08-.21c-.3-.05-.45,0-.55.12L68.93,52c.2,0,.23-.17.32-.26-.82.42-1.15-.05-1.75.61-.41-.24.6-.45.16-.52.33-.11.63-.63.8-1.05l.61,0a1.53,1.53,0,0,1-.47.32c1.49.26,1.1-.06,2.4.13a.28.28,0,0,1,0,.15l-.05.11C70.71,51.84,69.9,51.95,70.16,52.24Zm-2.95-.6-.54-.39c0-.48-.52.06-1.08-.07l0,0,.22-.47-.36.19a.51.51,0,0,1,0-.19.78.78,0,0,0-.15.26l-.65.33v0a1.7,1.7,0,0,1-.19-.21c.38-.47,1.1-.89.91-1.33l.13,0a2.73,2.73,0,0,0,2.17,1c.21,0,.22-.36.14-.85a1.61,1.61,0,0,0,.69.27,1.93,1.93,0,0,1-.34.49l-.12.06-.1,0H68C67.73,51,67.75,51.45,67.21,51.64Zm-1.14.28a1.31,1.31,0,0,0-.29-.14,1,1,0,0,1,.22-.1A.27.27,0,0,1,66.07,51.91Zm.5-.48c.08.06.16.13.17.19a.63.63,0,0,1-.5,0A.8.8,0,0,0,66.57,51.44Zm-18.74,0,.05,0h-.05ZM29,52l-.13.1-.1-.06a.75.75,0,0,1,.18-.14A.23.23,0,0,0,29,52ZM16.45,21.26c1-.53.73-1.83,2.07-1.41v.08l-.15,0,.15,0v0l0,0,1-.17c-.33.51-.82.36-1.06.77.83.49,1-.51,1.65-.87l.43-.07c.79.63-1,.6-.86,1.26.17-.21.76.05.73.26-.92-.1-.53.47-1.47.32l0-.05c.34-.26-.16-.18-.12-.48a.45.45,0,0,1-.21.19c-.7-.09-.77,0-.73.25a4,4,0,0,1-.8.09c-.06.42.41.37.83.42-.08.13-.29.24-.79.27a.74.74,0,0,0-.29-.21A.63.63,0,0,0,16.45,21.26Zm60.75-16,.07,0-.09,0Zm-3.65.72.08.48c1.06.1,1.74-1.12,2.83-1a.72.72,0,0,1,0,.12c-.16.29-.51.13-.45.33a.48.48,0,0,0,.46-.26.45.45,0,0,1,0,.24,1.33,1.33,0,0,0,.56-.35c.17.09.45.21,0,.48,1.14-.81,2.47.14,3.24,0-.21-.3.29-.48.31-.58.21,0,.14.34,0,.37a1,1,0,0,1,.25.21l-.24.29.19,0A1,1,0,0,1,80.86,6a1.09,1.09,0,0,1,.16.78l-.85.1a1.47,1.47,0,0,1,.59.49h0a.57.57,0,0,0,.41-.12.58.58,0,0,0,.16-.47l.1-.14a.41.41,0,0,1,.27.47c.5.1.41-.52.71-.68a4.08,4.08,0,0,1-.83,0l.5-.63a2.58,2.58,0,0,1-.27.38,1.69,1.69,0,0,0,.46-.62h0l0,.1.47-.08a.58.58,0,0,0,.62.76,5,5,0,0,0,.48-.23c.37.42,1-.4,1.59-.27L85,6l.22,0,.2-.11a.55.55,0,0,1,.13,0l-.1.25c.36-.51,1.33,0,1.95.09l0,.1c-.3.18-.39.42-.32.62a.59.59,0,0,1-.37,0l0-.2a2,2,0,0,0-1.79,0,7.64,7.64,0,0,1-.18,1l-.24-.05a.43.43,0,0,0-.25-.3s0,0,0,0c.24-.13.4-.25.15-.44l-.06,0,.12-.18-.73.16V6.64c-.31,0-.7.45-1,.16-.21.28-.41.69-.87.75h0c-.13-.24.24-.35.53-.36a2.54,2.54,0,0,0-1.18.35,1.42,1.42,0,0,1-.22.17l-.23-.13v0l.09-.19-.12.18h0c-.28-.19-.54-.39-.7-.2-.11.55.19.57.49.58,0,.09,0,.08,0,0h.07l-.53.31c-.07-.11-.16-.14-.37.1l.11.07-.2.17a.91.91,0,0,1-.07-.09c-.26-.12-.33,0-.35.12l-.53-.09.1-.12-.2.1-.55-.08-.27.21h.14a1,1,0,0,1-.11.44c-.28.06-.56.17-.55-.17a.41.41,0,0,0,.09-.58h-.17a2.43,2.43,0,0,1,.48-.59.94.94,0,0,0-.27-.13.57.57,0,0,1,.24-.19l.13.12,0,.13.06-.06h0l.28.28c.21-.08,0-.2-.05-.32.5,0,0,.81.82.45a1,1,0,0,0-.07.19L79,8.11l0,.07-.17.21L79,8.32a.62.62,0,0,1,0,.1A.67.67,0,0,0,79,8.29l.68-.3,0,.06a.37.37,0,0,1,0-.07L80,7.84l-.23,0A.41.41,0,0,0,80,7.55a.6.6,0,0,1-.23-.06A1.47,1.47,0,0,1,80.17,7L80,6.87l.42-.51a.21.21,0,0,1,.12.07.19.19,0,0,0-.05-.16l.05-.06a.54.54,0,0,0-.2,0c-.08,0-.13,0-.13.06s-.21.29-.37.43l-.13-.12V6.55h-.07l-.36-.33c-1,.26-1.68-.08-2.78.32l.06-.3c-1-.51-1.35.1-1.72.71-.06,0-.12,0-.17.21l0,0a1.39,1.39,0,0,1-.77.63,1.72,1.72,0,0,1-.64-.64c.07-.1,0-.29-.08-.5l-.12.15-.1-.21.15-.16-.13,0,.07-.32ZM97.08,1.88l.13,0a.47.47,0,0,1,0,.21A.31.31,0,0,1,97.08,1.88Zm16.59,8.57h0Zm-2.42.39h0Zm.09,3.1-.18,0,0-.13a.4.4,0,0,1,.23.12Zm-92.15,7.7,0,0h.16Zm.5-2.12a1.27,1.27,0,0,1-.1.2l-1,.19.4-.54Zm.84,0,0,0-.33.06A1,1,0,0,1,20.52,19.53Zm4-3.84c.1.31-.42.31-.32.41,1,.06,1.25-1,2.2-1.22-.22.51.3.42.61.63A26.11,26.11,0,0,1,30.43,14a.91.91,0,0,0,0,.25A9.9,9.9,0,0,0,27.67,16a.25.25,0,0,1,.09-.16c-.45.07-.7.12-.92.17h-.06L26,16.2l.19-.31c-.19-.37-.73.14-1.33.27-.15.25-.5.52-.78.29l0-.32c-.15-.25-.75-.16-1.43-.06l.13-.21C23.53,15.73,24.08,16.13,24.52,15.69ZM35.1,14.24l.23-.35a1.51,1.51,0,0,0,.53-.27c-.14.41-.33.8-.46,1.09l-1.08.12.21-.29a1.77,1.77,0,0,1-.67.18c-.11-.38.21-.29.54-.46q-.29-.51-.65.07l.14,0a3.51,3.51,0,0,0-.73.66l-.42,0v-.11c.47-.28.53-.59.26-.8.16-.13.42-.24.56-.38s1-.26,1.15.15l0,0c-.5.08-.44.14-.14.4a1.07,1.07,0,0,1,.22-.17Zm2.39.28-.09,0a.34.34,0,0,1,0-.05Zm2.14-1.58.23-.25c.61-.77,1-.12,1.37.33l-.07,0-.09.1c-.22,0-.67,0-.42-.4C40.4,13,39.86,12.79,39.62,12.94ZM75,7.28a.78.78,0,0,1,.32,0,.33.33,0,0,1-.16-.13c.21-.14.4-.25.27-.43l.93.23c-.15,0-.17.17-.24.26.58-.4.83,0,1.23-.46a.58.58,0,0,0,.12.11c-.11.13-.37.24-.15.29a.83.83,0,0,0-.33.37,1.87,1.87,0,0,0-.58.27c-.88-.18-.7.08-1.62-.09A.45.45,0,0,1,75,7.28Zm7.62.37a.13.13,0,0,0,.15,0l-.08-.06a1.5,1.5,0,0,1,.21-.27,2.89,2.89,0,0,0,.51.39l-.19.16.24,0a6,6,0,0,1-.74.12h0l-.09,0-.13-.07Zm.72-.8a.49.49,0,0,1,.23,0l-.23,0Zm26.58,4.4c0-.12-.42-.25-.42-.45a7.65,7.65,0,0,0,1.23,0c-.13.19-.24.38-.49.43a.15.15,0,0,1,0-.26ZM108.35,11l-.06-.06,0,0A.75.75,0,0,0,108.35,11Zm16,24.39-.29-.51.08-.1-.12,0-.16-.29c-1.54-1.63-1,.81-1.56.33L121.5,34l.72,0a6.47,6.47,0,0,1-1.16-.87,15.4,15.4,0,0,1,2.63-.09l.06.07.06-.05.25,0a.72.72,0,0,1-.11-.16l.09-.07,1,.52-.26.13.72.41,0,.07c0,.2-.23.4-.51.45s-.34-.1-.17-.18c-.79.47.67.2.16.71-.2-.08-.45,0-.59,0,.68.25,1.08-.17,1.48-.09l.6,1.49C125.78,35.75,124.41,34.57,124.32,35.44ZM36,13.18c.65-.11.42,0,.64.18a1.19,1.19,0,0,1-.24.1,1.7,1.7,0,0,1-.11-.2.56.56,0,0,1-.12.21.39.39,0,0,1-.17-.1A.53.53,0,0,0,36,13.18ZM77,9.71h0l0,0Zm-28.7,2a.59.59,0,0,1,.1-.21,1.07,1.07,0,0,1,.77.07l-.16.1.39-.06c-.24.93-1.42.22-1.91.89-.55-.06.07-.47-.05-.56a6.12,6.12,0,0,1,.82-.4Zm1.23.57.54-.71a2.28,2.28,0,0,1,1,.25l-.17,0,.19,0a2.3,2.3,0,0,1,.73.67c-.91.19-2.08.07-2.73.71h.1l-.1.1h-.18l.22-.14-.16,0-.11.09h-.26c0-.13-.09-.24-.26-.14.06-.62.67-.18,1-.66l0,0c.17.13.32.23.42-.11C49.76,12.32,49.65,12.3,49.53,12.31Zm5-1.7a15.63,15.63,0,0,0,1.74.09.62.62,0,0,0-.16.14.32.32,0,0,1-.08-.13c-.32.17,0,.67-.51.5,0-.1,0-.16.07-.15a.61.61,0,0,0-.44-.1l.14,0c-.34-.44-.78,0-1.14,0-.1-.07-.1-.13,0-.2.19.11.47.15.42-.15l-.2,0,.16-.1A.72.72,0,0,0,54.56,10.61Zm3.36-1.54.25,0,0,.46a.86.86,0,0,1-.24-.46Zm10.33-.24a.77.77,0,0,0,0,.13L68.06,9l0-.09a.36.36,0,0,0,.05-.16c.08,0,.14,0,.17.08Zm.27.56.09,0h-.08ZM68.88,8a.8.8,0,0,1,.45.06l0,.1c-.05-.14-.14-.18-.37.08A.68.68,0,0,1,68.88,8ZM118,33.41a.3.3,0,0,0,.1-.11l.44-.13C118.52,33.27,118.39,33.36,118,33.41Zm-71.5-22a2,2,0,0,1-.37.44A.82.82,0,0,1,46.48,11.46Zm22.84-3.2.12-.06a.25.25,0,0,1,0,.14h-.08Zm-24.6,5.23c.19-.16.06-.21-.11-.25l0-.08a.47.47,0,0,0,.29,0,.57.57,0,0,1-.29-.18.55.55,0,0,1,.33,0,.6.6,0,0,0,0-.09H45l-.11,0a3.46,3.46,0,0,0,.42-.06.18.18,0,0,0,0,.16l0,0h0c0,.15,0,.27.28.24a1.57,1.57,0,0,1-1,.48A.15.15,0,0,0,44.73,13.49ZM94.47,33.43a1.65,1.65,0,0,1-.51,0Zm1.43-.1a.21.21,0,0,1,.1.07l-.23.1,0-.16Zm.52,0c1.08-.06.84.25.81.56a1,1,0,0,1-.82-.2v-.37ZM58,10.65l-.08,0H58Zm-3,1.12c0-.23,0-.36.15-.29L55,11.39l.16,0A.47.47,0,0,1,55,11.77Zm-.26-.57-.1-.07.23-.08A.56.56,0,0,0,54.73,11.21Zm-7.75,1a3.34,3.34,0,0,0,.39-.17l-.12.35A.5.5,0,0,1,47,12.17Zm72.29,20a5.16,5.16,0,0,0-.74.18l-.1,0-.37-.49c.17,0,.32-.07.48-.1l.09.15.14-.2.35-.05a.25.25,0,0,0,.05.17l.42-.2h.52C119.89,31.76,119.56,32,119.28,32.15Zm-58.55-22c.08-.24.14-.44.34-.24A1.62,1.62,0,0,0,60.74,10.16Zm-3.67.52a2.45,2.45,0,0,0,.07.28h0a1.14,1.14,0,0,0-.64,0,1.68,1.68,0,0,1,0-.23Zm-31.87,10-.07.31-.21.28A2.38,2.38,0,0,1,24,21,4.81,4.81,0,0,1,25.19,20.69Zm91.47,12.91a2.14,2.14,0,0,1-.08.52L116,33.8v-.08Zm16.73-2h.13s0,.05,0,.08A.48.48,0,0,1,133.4,31.57Zm-44.52-24,0,0a1,1,0,0,1-.51.32A1.18,1.18,0,0,1,88,7.41a2.59,2.59,0,0,0,.66-.07l-.31.44C88.68,7.75,88.53,7.24,88.88,7.54ZM75.75,9.22a.3.3,0,0,1-.06-.12h0v0a.6.6,0,0,1,.41,0A1.84,1.84,0,0,0,75.75,9.22ZM68.9,8.71c-.09.18-.17.35-.31.35a1.32,1.32,0,0,1,.27-.35l-.51.21,0,0a.58.58,0,0,0,0-.5.8.8,0,0,0,.11-.19A1,1,0,0,1,68.9,8.71Zm-7.83.62a.28.28,0,0,0,0-.14h.38c.14,0,.28.08.25.25a.79.79,0,0,1,0,.14c-.2.13-.43.31-.45-.08a2.32,2.32,0,0,1-.05.37h0a.41.41,0,0,0-.28-.41.51.51,0,0,0,.05-.2Zm-3.8-.07a.62.62,0,0,1,.17.23c-.82.84-1.31.48-2.23.87a.41.41,0,0,1-.15-.25,1.61,1.61,0,0,0,.23-.25c.19-.08.42-.15.45-.29A1.2,1.2,0,0,1,56,9.5c.33,0,.63.23.56.38a.5.5,0,0,1,.34-.52,1.57,1.57,0,0,0-.32.53C57,9.82,57.09,9.51,57.28,9.26Zm-2.56,0h-.06l.1,0Zm-4.8,2.33c-.2.26-.69.45-.44.72l-.28,0c-.14-.29.43-.46.37-.72l.16,0h.19Zm-7.15.28c.13,0,.26.09.39.26-.27.08-.47.19-.51.43a.22.22,0,0,0-.12.15,4,4,0,0,1-.34.48L42,13.1C42.1,12.6,42.69,12.29,42.77,11.87ZM23,21.45l-.1,0Zm.13.17a1.13,1.13,0,0,1,.33-.12.48.48,0,0,1-.27,0h.16a1.41,1.41,0,0,1,.44-.36c-.08.14-.14.33-.3.39l.16,0v.12A2.72,2.72,0,0,1,23.17,21.62Zm93.77,12.69v0l0,0Zm3.17-1.23h.32a.86.86,0,0,1-.56.49A.84.84,0,0,0,120.11,33.08ZM93.69,7.17c.4-.13.34-.66.81-.69h.09l.2,0a.53.53,0,0,1,0,.1l-.12.2-.08.11a3.32,3.32,0,0,1-.46.35.74.74,0,0,1-.59-.17,1.27,1.27,0,0,1,.21.45.72.72,0,0,0-.19.24c-.45.05-.79-.83-.85-1.16-.92.1-1.53-.06-2.48,0a8.47,8.47,0,0,0,1-.77.25.25,0,0,1-.08.14,6,6,0,0,0,1.31-.16l-.17.28c.11.39.55,0,1-.09.13-.23.42-.45.6-.17l-.07.31s0,0,0,0a1.72,1.72,0,0,1-.78,0C93.63,6.58,93.26,6.59,93.69,7.17Zm-7.82-.1.2,0a.47.47,0,0,1,0,.29A.33.33,0,0,1,85.87,7.07Zm-.53,0c.09-.17.22-.28.44-.16A4.14,4.14,0,0,1,85.33,7Zm-8.59,2.4-.28.19a.52.52,0,0,1,.47,0s0,.07,0,.08a1.6,1.6,0,0,1-.44.05,4,4,0,0,0,.59.08.57.57,0,0,1,0,.25l-.29,0a.33.33,0,0,0-.33,0h-.1c.14-.38-.07-.5-.3-.59l.27,0c0-.09,0-.16.15-.22ZM78.5,7.16l0,0,0,0A.27.27,0,0,1,78.5,7.16Zm-.21.27-.12.08a.23.23,0,0,1-.1-.1A.36.36,0,0,1,78.28,7.43Zm-.93-.69.06-.07a.19.19,0,0,1,0,.06Zm-6.8.38,0,0,.11,0ZM55.09,8.87l0,0v0ZM54.95,9l-.05.07,0,0L54.31,9l0,0,.1-.19.45,0A.32.32,0,0,1,54.95,9ZM21.84,21l-.35,0A1.2,1.2,0,0,1,21.84,21Zm23.27,15,.13.09a.15.15,0,0,1-.17,0Zm24.23,14.5a.43.43,0,0,1-.05-.34,1.32,1.32,0,0,1,.39-.15A3,3,0,0,1,69.34,50.55ZM90.73,2.8h.16A.38.38,0,0,1,90.73,2.8Zm-52.55,10c-.06,0,0,.1-.06.15.5-.45.61-.25.88-.11a.18.18,0,0,0-.08,0c.23.13.34.11.47,0h.09a1.21,1.21,0,0,1,0,.18l.08-.09a.22.22,0,0,0,0,.06c.11-.14.46-.15.7,0-.32.17-.35.54-.75.48a.2.2,0,0,1,0-.16c-.25.18-.29.5-.37.78a2.4,2.4,0,0,1-.84.15l-.18-.43a2.28,2.28,0,0,1-.39.17l.3-.34.93-.25c0-.43-.88-.39-1-.69A.45.45,0,0,1,38.18,12.8ZM15.11,21.53a.68.68,0,0,1-.28-.13l.51-.13A.65.65,0,0,0,15.11,21.53Zm-1.38,2.71.8,0a.72.72,0,0,1-.07.25l-.22.06a.92.92,0,0,0-.61-.27ZM52.13,51.88a1.79,1.79,0,0,1,.29,0c0,.1-.17.19-.25.23a1.16,1.16,0,0,0,.49,0c-.06.11-.11.18-.37,0A.26.26,0,0,1,52.13,51.88Zm59.7-3.27c.09.16.13.29-.19.26A2.81,2.81,0,0,0,111.83,48.6Zm18.41-27-.24.05a.71.71,0,0,0-.57.11h.22l-.34.14a5.22,5.22,0,0,1-.2-.49c.37.21.42.18.38,0a.72.72,0,0,0,.17,0l0-.12Zm-1.64-1.54v0l0,0h0a.55.55,0,0,1-.05.25c0,.15-.05.27-.17.21l0-.07a.68.68,0,0,1-.45-.05C128.22,20.31,128.41,20.17,128.6,20.09Zm-9.14-6.45a1.84,1.84,0,0,1,.13.25l-.07,0s-.05,0-.05,0l-.45.27a6.69,6.69,0,0,1-.6-.49Zm-6.35-.14a1,1,0,0,1-.49.62l-.43-.05C112.46,13.82,112.43,13.32,113.11,13.49Zm-1.64-.24h0v.1l0-.09c.42.27.22.33.46.74l-.35-.1,0,.08.35,0,.07.12a.45.45,0,0,0,.15-.08l.43.06a4.29,4.29,0,0,0-.6.45.81.81,0,0,0-.34-.3l-.06-.29-.12,0a.53.53,0,0,0,.1-.35c-.23,0-.36.1-.49.13l0-.14h-.19l0-.08A1,1,0,0,1,111.47,13.26Zm-.2-1.79v-.37a3,3,0,0,0,.68,0l.2.08A1.85,1.85,0,0,0,111.26,11.46Zm1.69-.18a.79.79,0,0,0-.32-.26,2.39,2.39,0,0,1,.36,0l0,.08Zm1.39-.2c-.24,0-.33-.19-.46-.38.25,0,.54,0,.84,0l0,0C114.46,10.76,114.23,10.83,114.34,11.09Zm.48-.27.07.08-.05.08A.11.11,0,0,1,114.83,10.81Zm2.77-1.47c-.34.41-.57.68-1.11.72a1.55,1.55,0,0,0,.11-.45A1.29,1.29,0,0,1,117.6,9.35Zm-15.66-2.5.31-.08a.6.6,0,0,0-.29.07l.52-.35-.16.26-.06,0c.18,0,.25.18.33.36,0-.14.55-.32.43-.55l-.69.18c.53-.63,1.05.05,1.6-.45,0,.1-.09.14,0,.16a.65.65,0,0,0,.34,0,4.58,4.58,0,0,1-2.45,1.22.27.27,0,0,1-.06-.1.3.3,0,0,1,0,.1,2,2,0,0,1-.29,0c.14-.3.42-.34.31-.64ZM97,1.21c.13.16-.05.28-.17.38C96.79,1.49,96.92,1.32,97,1.21Zm-4.64.26v0h-.18a.44.44,0,0,0,0,0Zm-.58-.06c-.16.23-.22.19-.67.6l.58.33a.89.89,0,0,0-.23.11c0-.24-.13-.42-.72-.31A1,1,0,0,1,91.77,1.41Zm-3.24,1.5.2.38a3,3,0,0,0,.54-.3c.41,0,.85,0,1.16,0a1.18,1.18,0,0,1-.2.31,2.78,2.78,0,0,0-.85.27c-.48-.3-.93.34-1.2-.18l.06,0-.35,0,.33-.12-.06-.06-.33.17-.28,0V3.08a7,7,0,0,1,.64-.42C88.24,2.79,88.36,2.87,88.53,2.92Zm-.26-1.35-.19,0c0-.12,0-.24,0-.36C88.21,1.35,88.37,1.43,88.27,1.56Zm-1.44-.45-.35,0A.43.43,0,0,1,86.83,1.12Zm-5.35.22c1,.65.65-.88,1.82-.52.1,1.18.95-.73,1.21.43-.46-.13-1,.6-.94.73a4.57,4.57,0,0,1,.6-.08L84,2.12a.8.8,0,0,0-.14.11l0,0-.09.1a.85.85,0,0,1-.84.13c0-.1.14-.18.2-.23-.65-.27-1.62.66-2-.19C81.21,1.6,81.49,1.86,81.48,1.34ZM77.69,3.2a.49.49,0,0,1,.06.13.23.23,0,0,0-.09.21c-.07,0-.13-.09-.18-.2A1.16,1.16,0,0,0,77.69,3.2Zm-4,.28v.06h0ZM25,12.16h0Zm-9.31,2.6.1,0a8.26,8.26,0,0,0-.85.43C15.09,15,15.6,15,15.68,14.77Zm-.95,5.78-.09.16c.41-.48.56,0,.89-.43a.22.22,0,0,0,.11.21c.82-.38-.31-.26.46-.9.77-.06.39.78.64,1-.84.65-.38.8-.54,1.13l-.9-.13a1,1,0,0,1,.39-.36L15,21.12l-.23.23s0,0,0-.07c-.35,0-.51,0-.56.39.31.05,1,0,.61.37a1.83,1.83,0,0,1-1-.09l-.31-.18c.11-.12.25-.26.11-.21l-.46.06h0c.26-.37.81-.38.52-.84C14.17,21.13,14.07,20.24,14.73,20.55ZM10.17,22c.32-.26.31-.69.8-.87.21,0,.11.21,0,.26l.39-.37c.05.16,1.11.09.56.57-.09,0-.26,0-.39,0l.31.07A11,11,0,0,0,10.17,22ZM11,24.78c0-.1.3-.45.14-.36-.34.12-.79.22-1.27.34a3.41,3.41,0,0,1,1.86-.53.58.58,0,0,0,0,.23c.13,0,.33,0,.47,0-.08.11,0,.21.1.3h0C11.74,25,11.45,24.7,11,24.78ZM21.38,52.92l-1.33-.09c-.6-.31-.37-.47,0-.63l-.13.14C20.21,53.05,21,52.76,21.38,52.92Zm7.73-.56A2.8,2.8,0,0,0,29.4,52l.82.21h0l.36.09a.85.85,0,0,0-.17.47,3.43,3.43,0,0,1-.62.13A2.27,2.27,0,0,1,29.11,52.36Zm1.51.32a.63.63,0,0,1,.19-.35l.77.2c0,.15-.09.3-.48.5l-.16,0c.45-.29-.1-.21,0-.53A.52.52,0,0,1,30.62,52.67Zm1.42.09a.7.7,0,0,0,0-.13l.17,0h.12a.27.27,0,0,0,0,.1A1,1,0,0,0,32,52.77Zm1.94.05.06,0Zm12-1.17,0-.53.1-.09,0,0-.08,0,.82.07,0,.55Zm3.78.82c-.15-1.05-1,.41-1.4-.1v-.25a1,1,0,0,0,.47-.15.67.67,0,0,0,.38.07l0-.34.13-.15.58.37c-.1-.38.45-.25.6-.34.22.12.25.43.34.61a.89.89,0,0,1-.58.29l-.15,0v0A1.56,1.56,0,0,1,49.78,52.47Zm4.38.59c-1.21-.64-.79.89-2.2.53-.11-1.18-1.14.73-1.45-.42a.76.76,0,0,0,.47-.06,4.56,4.56,0,0,0,.53,0l-.09-.33c.17-.16.28-.33.24-.38l-.33,0v0c1-.59-.07.67.73.64l.32-.55.06.06.35-.44A3.61,3.61,0,0,1,54.19,52c-.41.07-.86.19-.88.53l1-.41c.2.11-.15.35,0,.57C54.22,52.75,54.16,52.84,54.16,53.06Zm2-.78a.42.42,0,0,1-.08.24.19.19,0,0,1,0-.16Zm2.18-1a.54.54,0,0,0,.08.56C57.87,51.59,58.06,51.43,58.33,51.27Zm1.56.84c.06-.22.13-.45.19-.71a3.49,3.49,0,0,0,.5-.09h.24C60.54,51.68,60.27,52.18,59.9,52.11Zm2.6.54a.88.88,0,0,0,.2-.11l-.1.13Zm-.83-.54.32-.28c-.63-.08-.84.31-1.09.54,0-.1,0-.16-.13-.28a.8.8,0,0,0-.12.06,1.33,1.33,0,0,1,1.23-.5l0,.1c.31-.53.82-.3,1.28-.09A2.24,2.24,0,0,1,61.67,52.11Zm2.26.55a2.46,2.46,0,0,1-.46-.85c.21.08.4.12.53,0,.13-.55-.25-.56-.65-.56a1.72,1.72,0,0,1,0-.5,1,1,0,0,0,.49.15.21.21,0,0,0,.25.07.32.32,0,0,1,.17.31,1.35,1.35,0,0,1,.12-.16c.23.36-.34.92-.56,1l.36.23A3.07,3.07,0,0,1,63.94,52.66Zm.43-.17.16.1a.34.34,0,0,1-.17-.1Zm3,.32c.1.12.33.25.29.46-.47-.32-.9-.17-1.35-.54A10.62,10.62,0,0,0,68,52.6c-.08.11.25.24.27.37C67.83,53.14,67.64,52.8,67.32,52.81Zm.82-.24.49-.13-.07.31.36.11a.79.79,0,0,1-.21.12Zm3.41,1-1.18-.19c.2-.05.21-.18.3-.27-.78.45-1.1,0-1.67.63-.4-.23.57-.46.14-.52a.78.78,0,0,0,.3-.25,1.3,1.3,0,0,0,1-.42c1,.11.8-.13,1.92,0C72.49,53.05,71.24,53.17,71.55,53.52Zm5.37-1.17-.52.14.6-.09h0a.56.56,0,0,0,.23.05,6.51,6.51,0,0,1-1.37.57c0-.16-.28-.19-.19-.34s.15-.07.23,0c-.07-.26.23-.46-.16-.6l0,0C76.8,51.49,76.6,52.1,76.92,52.35Zm-.32-1.52a1.45,1.45,0,0,1-.92.73l.12-.24h.06l0,0L76,51C76.21,51,76.37,50.56,76.6,50.83Zm2.6-.72c0-.07-.05-.15-.29-.23l.49-.17A.51.51,0,0,1,79.2,50.11Zm5.15-.28a.08.08,0,0,1,0-.09h0l.44-.15,0,0C84.87,49.83,84.64,49.93,84.35,49.84Zm2.8,2.71a.18.18,0,0,1,0-.1c.47-.37.76-.14,1,.11A4.59,4.59,0,0,1,87.15,52.54Zm7.1-1.89-.17.1-.08,0A1.55,1.55,0,0,0,94.25,50.65Zm-2.51.05,0,0a.32.32,0,0,0,0,.17A.47.47,0,0,1,91.74,50.7Zm-3.29.23a.6.6,0,0,0,.59.41c-.45,0-.88.09-1.37,0A2.19,2.19,0,0,0,88.45,50.93Zm-.78-.19-.14.32c-.27.17-.89.4-1.05,0A4.71,4.71,0,0,0,87.67,50.74ZM102,48c1.27-.06,2.82.27,3.83-.27l-.13,0,.6-.35c.34,0,0,.69.52.53-.2.6-.93.07-1.48.49.32.22.3.35.18.45l-.21,0,.14-.09c-.91.51-.83-.74-1.33.32l0-.53a3.49,3.49,0,0,1-1.7.66l0-.1c-1.27.74-.74.21-2.21.62l.63-.68c-.54-.2-.59.48-1,.45,0,0,0-.15,0-.26A16,16,0,0,0,102,48Zm-4.77,2.89a.62.62,0,0,1-.23-.18,3.58,3.58,0,0,1,.54-.35Zm9.87-.37c-.35.3-.65.73-1.2.59,0-.18.11-.34.12-.46Zm.75-1.36a1.38,1.38,0,0,0-.16-.38.9.9,0,0,0,.19-.09C108.42,48.85,108,49.06,107.83,49.2Zm3.63-.19c.19.22.58-.26,1-.16-.19.14-.52.34-.71.48a1,1,0,0,1-.58-.19A1.23,1.23,0,0,0,111.47,49Zm.4.32a1.31,1.31,0,0,1,.81-.07A3,3,0,0,1,111.87,49.33Zm23.82-15.7-.14-.12c.21,0,.27-.13.27-.23l.23,0C136.14,33.57,135.95,33.57,135.69,33.64Zm1.17-2.17a.49.49,0,0,0,.15-.13.33.33,0,0,1,.12.06C137.05,31.42,137,31.44,136.87,31.47Zm1.72-.34a.72.72,0,0,0,.27-.3,3,3,0,0,0,.58-.2l.45.15A4.45,4.45,0,0,1,138.59,31.14Zm1.83-.3-.4.34c-.14,0-.24-.06-.24-.23A4.48,4.48,0,0,1,140.42,30.83Zm.34.36h.11l-.08.06S140.76,31.21,140.75,31.19Z"/><path class="cls-1" d="M152.55,24.72c0,.43-1,0-.7.52C152.09,25.07,152.65,25.11,152.55,24.72Z"/><path class="cls-1" d="M152.79,25.4l-.7.09.43.18C152.56,25.58,152.54,25.41,152.79,25.4Z"/><path class="cls-1" d="M153.17,28.6a1.38,1.38,0,0,1,1.17-.44c.19,1-.93.27-1.21,1.23,1,.12,1.38-.78,2.23-.85C154.94,28.1,153.22,27.82,153.17,28.6Z"/><polygon class="cls-1" points="152.62 29.84 152.68 29.91 153.26 29.68 153.21 29.62 152.62 29.84"/><path class="cls-1" d="M139.76,20.66a.68.68,0,0,0,.61-.06C140.32,20.28,140,20.59,139.76,20.66Z"/><path class="cls-1" d="M139.62,30.17l0,0s0,0,.06-.05Z"/><path class="cls-1" d="M13.18,34.12c.39-.07,1.23-.1,1.43-.44-.18.24-.85,0-1,.31l0-.1Z"/><path class="cls-1" d="M18.29,33.09a1.22,1.22,0,0,0-.32.25C18.29,33.25,18.33,33.17,18.29,33.09Z"/><path class="cls-1" d="M139.53,33.33a1.47,1.47,0,0,1,.22-.29C139.6,33.17,139.47,33.27,139.53,33.33Z"/><path class="cls-1" d="M142.07,31.58l0,0s0,0,.06-.06Z"/><path class="cls-1" d="M142.62,28.17l-.62.12.39.16C142.42,28.35,142.4,28.19,142.62,28.17Z"/><path class="cls-1" d="M143.08,31.36a1.15,1.15,0,0,1,1-.49c.21,1-.82.31-1,1.28.92.08,1.19-.83,1.94-.94C144.63,30.79,143.09,30.57,143.08,31.36Z"/><polygon class="cls-1" points="142.69 32.68 143.2 32.43 143.15 32.37 142.64 32.62 142.69 32.68"/><polygon class="cls-1" points="123.74 33.87 123.8 33.67 123.49 33.99 123.74 33.87"/><path class="cls-1" d="M15.81,34c.4,0,1.23,0,1.46-.33-.2.22-.84-.1-1.06.23l0-.1Z"/><path class="cls-1" d="M147.37,12.74a1.19,1.19,0,0,0,.3-.25C147.37,12.58,147.33,12.66,147.37,12.74Z"/><path class="cls-1" d="M132.94,17.1c-.05.11-.27.23,0,.23Z"/><polygon class="cls-1" points="27.53 15.48 27.48 15.42 26.99 15.67 27.05 15.73 27.53 15.48"/><path class="cls-1" d="M133.79,20.66l1.21-.11.07-.5c-.1.13-.52.4-.69.21l.16-.35Z"/><path class="cls-1" d="M129.5,20.79l0,.08.48.05Z"/><path class="cls-1" d="M121,13.57l-.73.2c.17,0,.24.18.32.35C120.67,14,121.15,13.8,121,13.57Z"/><path class="cls-1" d="M120.31,13.77a.58.58,0,0,0-.32.09Z"/><path class="cls-1" d="M120.66,14.21l0-.08A.06.06,0,0,0,120.66,14.21Z"/><path class="cls-1" d="M144.11,19.57l.3.2C144.3,19.65,144.24,19.59,144.11,19.57Z"/><path class="cls-1" d="M149.37,11.87l0,.1.4-.21c-.38,0-1.19,0-1.4.36C148.53,11.89,149.16,12.21,149.37,11.87Z"/><path class="cls-1" d="M3.09,21.86c-.29.11-.61-.14-.52-.3-.54.49-.64.07-.57.8-.32.43-.84,0-.45-.36l-1,.66.7,0c-.07.63-1.12,0-1.19.77l1.21-.29,0,.21a1.23,1.23,0,0,1,1-.23c0,.1,0,.26-.17.32,1.49-.24.19-1.12,1.38-1.55A.51.51,0,0,1,3.09,21.86Z"/><path class="cls-1" d="M5.9,22.26c0-.26.55-.59.08-.73a.72.72,0,0,1-.36.17c0-.58,1.1-.5.74-1-.66.28-.79.18-1.12.71a2.93,2.93,0,0,1-1.45-.12c-.17.12-.13.47-.35.58l.16-.05.19.83c.16-.21.37-.17.58-.23l-.82,1.17c.48.72,1.38.07,1.84.32-.63-.61.32-.43-.74-.82L5,22.23Z"/><path class="cls-1" d="M130.24,6.49a1.22,1.22,0,0,0,.33-.24C130.24,6.33,130.2,6.41,130.24,6.49Z"/><path class="cls-1" d="M81.31,7.32c-.11.15-.19.19-.29.34a2.2,2.2,0,0,1,.24-.14C81.33,7.45,81.36,7.38,81.31,7.32Z"/><path class="cls-1" d="M80.91,6.29l-.13,0c0,.11,0,.2.08.24Z"/><path class="cls-1" d="M15,21.12h0l.06-.06Z"/><path class="cls-1" d="M8.63,19.63h0v-.1Z"/><path class="cls-1" d="M9.59,14.07a1.47,1.47,0,0,1-.17.32C9.54,14.25,9.65,14.12,9.59,14.07Z"/><path class="cls-1" d="M9,22.13a3.7,3.7,0,0,1-2,.46L7.17,22c.72.35,1-.08,1.69-.14l-1.46,0c-.74-.32-.32-.51.18-.7-.13,0-.25,0-.3-.08,0,.21-1.43.93-.16.79.07.63-.75.44-1,.66.27.1,0,.42.07.63.15-.11.31-.32.59-.33.18.26-.2.53-.54.49.46.25-.41.59.2.73A4.73,4.73,0,0,0,9,22.13Z"/><path class="cls-1" d="M7.36,16.2h0a.28.28,0,0,0,0,.06Z"/><path class="cls-1" d="M77.35,8.32l.7.09.08-.07C78.1,8.18,77.31,7.9,77.35,8.32Z"/><path class="cls-1" d="M24.62,16.18a1.12,1.12,0,0,0,.26,0l0-.07C24.85,16,24.7,16.13,24.62,16.18Z"/><path class="cls-1" d="M7.72,20.27c-.09-.42.86-.23.49-.64C8,19.85,7.55,19.91,7.72,20.27Z"/><path class="cls-1" d="M7.37,19.65,8,19.43l-.41-.1C7.54,19.44,7.59,19.6,7.37,19.65Z"/><path class="cls-1" d="M6.4,16.59a1.16,1.16,0,0,1-.92.65c-.38-1,.75-.44.8-1.44-.92.08-1,1-1.75,1.25C5,17.41,6.52,17.37,6.4,16.59Z"/><polygon class="cls-1" points="6.62 15.27 6.56 15.22 6.1 15.55 6.16 15.6 6.62 15.27"/><polygon class="cls-1" points="25.11 11.43 25.37 11.06 25.14 11.22 25.11 11.43"/><polygon class="cls-1" points="24.63 10.32 25.31 10.07 24.82 10.01 24.63 10.32"/><polygon class="cls-1" points="51.04 12.21 50.56 12.5 51.16 12.32 51.04 12.21"/><path class="cls-1" d="M116,13.24c0-.43-.74-.16-.91-.08l-.05,1.16a.6.6,0,0,0,.24-1.08C115.88,13,115.62,13.87,116,13.24Z"/><path class="cls-1" d="M95.88.21a.72.72,0,0,0-.54.09C95.41.63,95.66.23,95.88.21Z"/><path class="cls-1" d="M102.61,7.22l0-.08S102.56,7.19,102.61,7.22Z"/><path class="cls-1" d="M126.85,13.36c-.1-.12-.16-.19-.3-.21Z"/><path class="cls-1" d="M132.35,5.72l0,.1.43-.19c-.4,0-1.23,0-1.47.29C131.49,5.7,132.11,6,132.35,5.72Z"/></g></g></svg>