<svg id="Слой_1" data-name="Слой 1" xmlns="http://www.w3.org/2000/svg" viewBox="0 0 1221.12 303.03"><defs><style>.cls-1{fill:#fff;}</style></defs><title>logo-about</title><polygon class="cls-1" points="14.27 99.19 14.27 29.19 31.77 11.69 145.27 11.69 163.02 29.44 163.02 62.19 128.77 62.19 128.77 45.69 47.77 45.69 47.77 74.69 145.77 74.69 163.27 92.19 163.27 160.69 146.02 177.94 25.77 177.94 13.15 165.31 13.15 126.69 48.77 126.69 48.77 143.69 128.77 143.69 128.77 108.69 25.77 108.69 14.27 99.19"/><path class="cls-1" d="M319.27,11.2h-132v167l33.5-.5V126.44H324.52l11.75-11.75V28.2Zm-23.5,80.5h-74v-46h74Z"/><path class="cls-1" d="M486.27,11.2h-114l-18,18v132l18.5,16.75H487l16.75-16.75V28.69Zm-17.5,132.5h-81v-98h81Z"/><path class="cls-1" d="M652.77,120.69h11.5L676,108.94V28.2L659.15,11.33,526.27,11.2v167h35v-52h46l35,35v17h34v-34Zm-17-29h-75v-46h75Z"/><polygon class="cls-1" points="745.27 178.19 780.27 178.19 780.27 45.19 837.27 45.19 837.27 11.19 688.27 11.19 688.27 45.19 745.77 45.19 745.27 178.19"/><polygon class="cls-1" points="855.27 178.19 889.27 178.19 889.27 109.19 987.27 109.19 987.27 75.19 889.27 75.19 889.27 45.19 993.27 45.19 993.27 11.19 855.27 11.19 855.27 178.19"/><rect class="cls-1" x="1010.27" y="11.19" width="35" height="167"/><polygon class="cls-1" points="1057.27 11.19 1057.27 45.19 1114.27 45.19 1114.27 178.19 1149.27 178.19 1149.27 45.19 1206.27 45.19 1206.27 11.19 1057.27 11.19"/><path class="cls-1" d="M494.27,263.54q0-14,7.53-21.95t19.43-7.93a27,27,0,0,1,14.06,3.73,24.34,24.34,0,0,1,9.54,10.39,33.74,33.74,0,0,1,3.28,15.11,33.17,33.17,0,0,1-3.46,15.32,23.6,23.6,0,0,1-9.79,10.23,28,28,0,0,1-13.67,3.48A26.62,26.62,0,0,1,507,288.08a24.71,24.71,0,0,1-9.49-10.48A31.77,31.77,0,0,1,494.27,263.54Zm7.68.12q0,10.18,5.47,16a19.09,19.09,0,0,0,27,.52l.58-.58q5.43-5.91,5.43-16.78a28.85,28.85,0,0,0-2.32-12,17.85,17.85,0,0,0-6.8-7.95,18.43,18.43,0,0,0-10-2.82,19.05,19.05,0,0,0-13.61,5.43Q502,250.94,502,263.65Z"/><path class="cls-1" d="M521.22,294.92a29.69,29.69,0,0,1-15.78-4.28,27.76,27.76,0,0,1-10.62-11.73,34.89,34.89,0,0,1-3.53-15.37c0-10.09,2.81-18.17,8.35-24s12.85-8.87,21.61-8.87a30,30,0,0,1,15.59,4.15,27.39,27.39,0,0,1,10.7,11.64,36.86,36.86,0,0,1,3.59,16.44,36.29,36.29,0,0,1-3.79,16.69,26.64,26.64,0,0,1-11,11.5A31.08,31.08,0,0,1,521.22,294.92Zm0-58.26c-7.14,0-12.79,2.29-17.26,7s-6.7,11.38-6.7,19.88a28.94,28.94,0,0,0,2.92,12.75,21.56,21.56,0,0,0,8.35,9.24,23.78,23.78,0,0,0,12.64,3.4,25.14,25.14,0,0,0,12.23-3.11,20.48,20.48,0,0,0,8.56-9,30.37,30.37,0,0,0,3.13-14,30.94,30.94,0,0,0-3-13.79,21.21,21.21,0,0,0-8.39-9.14,24.12,24.12,0,0,0-12.43-3.23Zm-.08,51.88a21,21,0,0,1-15.92-6.81c-4.17-4.46-6.28-10.54-6.28-18.08,0-9.29,2.23-16.12,6.63-20.32a22,22,0,0,1,15.68-6.26,21.46,21.46,0,0,1,11.64,3.29,20.88,20.88,0,0,1,7.93,9.25,31.93,31.93,0,0,1,2.59,13.24c0,8-2.09,14.32-6.23,18.81a20.94,20.94,0,0,1-16,6.88Zm.12-45.47a16,16,0,0,0-11.54,4.61c-3.17,3-4.77,8.39-4.77,16,0,6.05,1.53,10.63,4.66,14a16.09,16.09,0,0,0,22.75.42l.42-.42c3.08-3.35,4.64-8.32,4.64-14.75a26,26,0,0,0-2.06-10.76,14.79,14.79,0,0,0-5.67-6.65,15.35,15.35,0,0,0-8.42-2.45Z"/><path class="cls-1" d="M635.16,291v-56.3h21.11a26.14,26.14,0,0,1,10.35,1.71,13.31,13.31,0,0,1,6.11,5.26,13.87,13.87,0,0,1,2.21,7.43,12.77,12.77,0,0,1-2,6.8A14,14,0,0,1,667,261a14.71,14.71,0,0,1,7.85,5.11,13.68,13.68,0,0,1,2.75,8.53A16.45,16.45,0,0,1,676,282a14.24,14.24,0,0,1-4.13,5.24,17.23,17.23,0,0,1-6.16,2.78,37.44,37.44,0,0,1-9.08.94Zm7.45-32.64h12.17a27.14,27.14,0,0,0,7.1-.65,7.9,7.9,0,0,0,4.28-2.8,8.07,8.07,0,0,0,1.44-4.92,9.06,9.06,0,0,0-1.34-4.93,6.81,6.81,0,0,0-3.84-2.92,32.1,32.1,0,0,0-8.56-.79H642.61Zm0,26h14a32.37,32.37,0,0,0,5.07-.27,12.16,12.16,0,0,0,4.3-1.54,8.15,8.15,0,0,0,2.84-3.13,9.8,9.8,0,0,0,1.11-4.74,9.36,9.36,0,0,0-1.61-5.47,8.51,8.51,0,0,0-4.47-3.26,27.73,27.73,0,0,0-8.24-.94h-13Z"/><path class="cls-1" d="M656.63,294H632.16v-62.3h24.11a28.72,28.72,0,0,1,11.55,2,16.31,16.31,0,0,1,7.45,6.42,16.89,16.89,0,0,1,2.66,9,15.78,15.78,0,0,1-2.4,8.37,15.25,15.25,0,0,1-2.44,3,16.2,16.2,0,0,1,4.21,3.85,16.67,16.67,0,0,1,3.36,10.34,19.49,19.49,0,0,1-2,8.68,17.25,17.25,0,0,1-5,6.32,20.26,20.26,0,0,1-7.23,3.29A40.6,40.6,0,0,1,656.63,294Zm-18.47-6h18.47a34.73,34.73,0,0,0,8.34-.85,14.37,14.37,0,0,0,5.1-2.28,11.36,11.36,0,0,0,3.23-4.16,13.36,13.36,0,0,0,1.36-6,10.67,10.67,0,0,0-2.13-6.71,11.06,11.06,0,0,0-5-3.61,11.22,11.22,0,0,1,3.27,3.13,12.34,12.34,0,0,1,2.15,7.18,12.8,12.8,0,0,1-1.48,6.17,11.15,11.15,0,0,1-3.89,4.25,15.17,15.17,0,0,1-5.36,1.94,33.93,33.93,0,0,1-5.6.32h-17V262h16a46.26,46.26,0,0,1,4.81.22l-1.57-.46,1.38-.68a44.44,44.44,0,0,1-5.46.28H639.61v-23h14.26c4.39,0,7.49.3,9.47.93a9.76,9.76,0,0,1,5.48,4.18,12,12,0,0,1,1.81,6.54,11.23,11.23,0,0,1-1.68,6.2,9.34,9.34,0,0,0,1.5-1.86A9.74,9.74,0,0,0,672,249.1a10.84,10.84,0,0,0-1.76-5.85,10.28,10.28,0,0,0-4.76-4.1,23.4,23.4,0,0,0-9.15-1.46H638.16Zm7.45-6.64h11a28.76,28.76,0,0,0,4.53-.22A9.33,9.33,0,0,0,664.4,280a5.18,5.18,0,0,0,1.79-2,6.79,6.79,0,0,0,.75-3.31,6.37,6.37,0,0,0-1.08-3.76,5.54,5.54,0,0,0-3-2.13,24.41,24.41,0,0,0-7.3-.79h-10Zm0-26h9.17a23.65,23.65,0,0,0,6.23-.52,5,5,0,0,0,2.74-1.71,5.14,5.14,0,0,0,.86-3.14,6.06,6.06,0,0,0-.88-3.33,3.82,3.82,0,0,0-2.21-1.66c-.94-.29-3-.65-7.66-.65h-8.25Z"/><path class="cls-1" d="M763.4,263.54q0-14,7.53-21.95t19.43-7.93a27,27,0,0,1,14.06,3.73A24.34,24.34,0,0,1,814,247.78a33.74,33.74,0,0,1,3.28,15.11,33.17,33.17,0,0,1-3.46,15.32A23.6,23.6,0,0,1,804,288.44a28,28,0,0,1-13.67,3.48,26.62,26.62,0,0,1-14.21-3.84,24.71,24.71,0,0,1-9.49-10.48A31.77,31.77,0,0,1,763.4,263.54Zm7.68.12q0,10.18,5.47,16a19.09,19.09,0,0,0,27,.52l.58-.58q5.43-5.91,5.43-16.78a28.85,28.85,0,0,0-2.32-12,17.85,17.85,0,0,0-6.8-7.95,18.43,18.43,0,0,0-10-2.82,19.05,19.05,0,0,0-13.61,5.43q-5.74,5.46-5.74,18.17Z"/><path class="cls-1" d="M790.27,294.92a29.69,29.69,0,0,1-15.78-4.28,27.76,27.76,0,0,1-10.62-11.73,34.89,34.89,0,0,1-3.53-15.37c0-10.09,2.81-18.17,8.35-24s12.85-8.87,21.61-8.87a30,30,0,0,1,15.59,4.15,27.4,27.4,0,0,1,10.7,11.64,36.86,36.86,0,0,1,3.59,16.44,36.29,36.29,0,0,1-3.79,16.69,26.65,26.65,0,0,1-11,11.5A31.08,31.08,0,0,1,790.27,294.92Zm0-58.26c-7.14,0-12.79,2.29-17.26,7s-6.7,11.38-6.7,19.88a28.94,28.94,0,0,0,2.92,12.75,21.56,21.56,0,0,0,8.35,9.24,23.78,23.78,0,0,0,12.64,3.4,25.14,25.14,0,0,0,12.23-3.11,20.48,20.48,0,0,0,8.57-9,30.37,30.37,0,0,0,3.13-14,30.94,30.94,0,0,0-3-13.79,21.2,21.2,0,0,0-8.39-9.14,24.12,24.12,0,0,0-12.4-3.23Zm-.08,51.88a21,21,0,0,1-15.92-6.81c-4.17-4.46-6.28-10.54-6.28-18.08,0-9.29,2.23-16.12,6.63-20.32a22,22,0,0,1,15.68-6.26,21.46,21.46,0,0,1,11.64,3.29,20.88,20.88,0,0,1,7.93,9.25,31.93,31.93,0,0,1,2.59,13.24c0,8-2.09,14.32-6.23,18.81a20.94,20.94,0,0,1-16,6.88Zm.12-45.47a16,16,0,0,0-11.55,4.61c-3.17,3-4.77,8.39-4.77,16,0,6.05,1.53,10.63,4.66,14a16.09,16.09,0,0,0,22.75.42l.42-.42c3.08-3.35,4.64-8.32,4.64-14.75a26,26,0,0,0-2.06-10.76,14.78,14.78,0,0,0-5.67-6.65,15.35,15.35,0,0,0-8.34-2.45Z"/><path class="cls-1" d="M901.76,291v-56.3h7.45v49.66h27.73V291Z"/><path class="cls-1" d="M939.94,294H898.77v-62.3h13.45v49.66H940Zm-35.18-6h29.18v-.64H906.22V237.66h-1.45Z"/><path class="cls-1" d="M1023.2,263.54q0-14,7.53-21.95t19.43-7.93a27,27,0,0,1,14.06,3.73,24.34,24.34,0,0,1,9.54,10.39,33.75,33.75,0,0,1,3.28,15.11,33.18,33.18,0,0,1-3.46,15.32,23.6,23.6,0,0,1-9.79,10.23,28,28,0,0,1-13.67,3.48,26.61,26.61,0,0,1-14.21-3.84,24.71,24.71,0,0,1-9.49-10.48A31.77,31.77,0,0,1,1023.2,263.54Zm7.68.12q0,10.18,5.47,16a19.09,19.09,0,0,0,27,.52l.58-.58q5.43-5.91,5.43-16.78a28.85,28.85,0,0,0-2.32-12,17.85,17.85,0,0,0-6.8-7.95,18.43,18.43,0,0,0-10-2.82,19,19,0,0,0-13.61,5.43q-5.74,5.46-5.74,18.17Z"/><path class="cls-1" d="M1050.12,294.92a29.7,29.7,0,0,1-15.78-4.28,27.77,27.77,0,0,1-10.62-11.73,34.9,34.9,0,0,1-3.53-15.37c0-10.1,2.81-18.17,8.35-24s12.85-8.87,21.61-8.87a30,30,0,0,1,15.59,4.15,27.39,27.39,0,0,1,10.7,11.64A36.86,36.86,0,0,1,1080,262.9a36.29,36.29,0,0,1-3.78,16.69,26.65,26.65,0,0,1-11,11.5A31.07,31.07,0,0,1,1050.12,294.92Zm0-58.26c-7.15,0-12.79,2.29-17.26,7s-6.7,11.38-6.7,19.88a28.94,28.94,0,0,0,2.92,12.75,21.57,21.57,0,0,0,8.36,9.24,23.78,23.78,0,0,0,12.64,3.4,25.13,25.13,0,0,0,12.23-3.11,20.49,20.49,0,0,0,8.57-9,30.37,30.37,0,0,0,3.13-14,30.93,30.93,0,0,0-3-13.79,21.2,21.2,0,0,0-8.39-9.14,24.12,24.12,0,0,0-12.46-3.23Zm-.08,51.88a21,21,0,0,1-15.92-6.81c-4.17-4.46-6.28-10.54-6.28-18.08,0-9.29,2.23-16.12,6.63-20.32a22,22,0,0,1,15.68-6.26,21.47,21.47,0,0,1,11.64,3.29,20.88,20.88,0,0,1,7.93,9.25,31.94,31.94,0,0,1,2.59,13.24c0,8-2.09,14.32-6.22,18.81a20.94,20.94,0,0,1-16,6.88Zm.12-45.47a16,16,0,0,0-11.54,4.61c-3.17,3-4.77,8.39-4.77,16,0,6.05,1.53,10.63,4.67,14a16.09,16.09,0,0,0,22.75.42l.42-.42c3.08-3.35,4.64-8.32,4.64-14.75a26,26,0,0,0-2.06-10.76,14.78,14.78,0,0,0-5.67-6.65,15.36,15.36,0,0,0-8.4-2.45Z"/><path class="cls-1" d="M1161.8,291v-56.3h7.64l29.57,44.2v-44.2h7.14V291h-7.64l-29.57-44.24V291Z"/><path class="cls-1" d="M1209.16,294h-12.25l-25-37.36V294h-13.14v-62.3H1171L1196,269V231.66h13.14Zm-7.14-6h1.14v-50.3H1202Zm-1.9,0h1.37l-33.65-50.3h-1.34Zm-35.32,0h1.14v-50.3h-1.14Z"/></svg>