<?xml version="1.0" encoding="utf-8"?>
<!-- Generator: Adobe Illustrator 21.1.0, SVG Export Plug-In . SVG Version: 6.00 Build 0)  -->
<svg version="1.1" id="Слой_1" xmlns="http://www.w3.org/2000/svg" xmlns:xlink="http://www.w3.org/1999/xlink" x="0px" y="0px"
	 viewBox="0 0 71.5 61.5" style="enable-background:new 0 0 71.5 61.5;" xml:space="preserve">
<style type="text/css">
	.st0{fill:#8B0000;}
</style>
<g transform="matrix( 1, 0, 0, 1, 0,0) ">
	<g>
		<g id="a">
			<path class="st0" d="M71.3,7.2c-0.1-0.7-0.5-1.2-1.1-1.6l-7.3-5C62.3,0.2,61.7,0,61,0.2c-0.7,0.1-1.2,0.5-1.6,1L31,43.1l-22-15
				c-0.6-0.4-1.2-0.5-1.9-0.4c-0.7,0.1-1.2,0.5-1.6,1l-4.9,7.4c-0.4,0.6-0.5,1.2-0.3,1.8c0.1,0.7,0.5,1.2,1.1,1.6l23.6,16.2
				c0.1,0.1,0.2,0.2,0.4,0.3l0.9,0.6c0,0,0,0,0.1,0c0,0,0.1,0,0.1,0.1c0.1,0,0.1,0.1,0.2,0.1c0,0,0.1,0,0,0.1l6,4.2
				c0.6,0.4,1.2,0.5,1.9,0.4c0.7-0.1,1.2-0.5,1.6-1l5-7.3c0.1-0.1,0.1-0.1,0.2-0.2L70.9,9C71.3,8.5,71.4,7.8,71.3,7.2z"/>
		</g>
	</g>
</g>
</svg>
